<svg viewBox="0 0 608 335" fill="none" xmlns="http://www.w3.org/2000/svg">
<path d="M537.5 136C537.5 122.782 537.5 116.218 537.5 116.218L521 100H495.5L445 49.5H244" stroke="white" stroke-opacity="0.8" stroke-width="8" stroke-linejoin="round"/>
<path d="M40 330.5L4 299.5V74V26.5L26 4.5H220.5L244.5 26.5V74H425L490.5 137H566.5L604 169V249.75V296.5L566.5 330.5H40Z" fill="url(#paint0_linear_1_67)" stroke="white" stroke-width="8" stroke-linejoin="round"/>
<path d="M63.4304 135.455V150H60.7741L54.446 140.845H54.3395V150H51.2642V135.455H53.9631L60.2415 144.602H60.3693V135.455H63.4304ZM69.0252 150.206C68.3292 150.206 67.7089 150.085 67.1644 149.844C66.6199 149.598 66.189 149.235 65.8718 148.757C65.5593 148.274 65.4031 147.673 65.4031 146.953C65.4031 146.347 65.5143 145.838 65.7369 145.426C65.9594 145.014 66.2624 144.683 66.646 144.432C67.0295 144.181 67.4651 143.991 67.9528 143.864C68.4452 143.736 68.9613 143.646 69.5011 143.594C70.1355 143.527 70.6469 143.466 71.0352 143.409C71.4234 143.348 71.7051 143.258 71.8803 143.139C72.0555 143.021 72.1431 142.846 72.1431 142.614V142.571C72.1431 142.121 72.0011 141.773 71.717 141.527C71.4376 141.281 71.0399 141.158 70.5238 141.158C69.9793 141.158 69.546 141.278 69.2241 141.52C68.9021 141.757 68.689 142.055 68.5849 142.415L65.7866 142.188C65.9286 141.525 66.208 140.952 66.6246 140.469C67.0413 139.981 67.5787 139.607 68.2369 139.347C68.8997 139.081 69.6668 138.949 70.538 138.949C71.1441 138.949 71.7241 139.02 72.2781 139.162C72.8368 139.304 73.3316 139.524 73.7624 139.822C74.198 140.121 74.5413 140.504 74.7923 140.973C75.0432 141.437 75.1687 141.993 75.1687 142.642V150H72.2994V148.487H72.2141C72.0389 148.828 71.8046 149.129 71.511 149.389C71.2174 149.645 70.8647 149.846 70.4528 149.993C70.0408 150.135 69.565 150.206 69.0252 150.206ZM69.8917 148.118C70.3368 148.118 70.7298 148.03 71.0707 147.855C71.4116 147.675 71.6791 147.434 71.8732 147.131C72.0674 146.828 72.1644 146.484 72.1644 146.101V144.943C72.0697 145.005 71.9395 145.062 71.7738 145.114C71.6128 145.161 71.4305 145.206 71.2269 145.249C71.0233 145.286 70.8197 145.322 70.6161 145.355C70.4125 145.384 70.2279 145.41 70.0621 145.433C69.707 145.485 69.3969 145.568 69.1317 145.682C68.8666 145.795 68.6606 145.949 68.5138 146.143C68.3671 146.333 68.2937 146.57 68.2937 146.854C68.2937 147.266 68.4428 147.58 68.7411 147.798C69.0442 148.011 69.4277 148.118 69.8917 148.118ZM77.516 150V139.091H80.3995V141.016H80.5273C80.7546 140.376 81.1334 139.872 81.6637 139.503C82.194 139.134 82.8285 138.949 83.5671 138.949C84.3152 138.949 84.9521 139.136 85.4776 139.51C86.0032 139.879 86.3536 140.381 86.5288 141.016H86.6424C86.8649 140.391 87.2674 139.891 87.8498 139.517C88.4369 139.138 89.1306 138.949 89.9308 138.949C90.9487 138.949 91.775 139.273 92.4094 139.922C93.0487 140.566 93.3683 141.48 93.3683 142.663V150H90.3498V143.26C90.3498 142.654 90.1888 142.199 89.8668 141.896C89.5449 141.593 89.1424 141.442 88.6594 141.442C88.1102 141.442 87.6817 141.617 87.3739 141.967C87.0662 142.313 86.9123 142.77 86.9123 143.338V150H83.979V143.196C83.979 142.661 83.8252 142.235 83.5174 141.918C83.2144 141.6 82.8143 141.442 82.3171 141.442C81.9809 141.442 81.6779 141.527 81.408 141.697C81.1429 141.863 80.9322 142.098 80.7759 142.401C80.6197 142.699 80.5415 143.049 80.5415 143.452V150H77.516ZM100.73 150.213C99.6076 150.213 98.6417 149.986 97.832 149.531C97.0271 149.072 96.4068 148.423 95.9712 147.585C95.5356 146.742 95.3178 145.746 95.3178 144.595C95.3178 143.473 95.5356 142.488 95.9712 141.641C96.4068 140.793 97.02 140.133 97.8107 139.659C98.6062 139.186 99.5389 138.949 100.609 138.949C101.329 138.949 101.999 139.065 102.619 139.297C103.244 139.524 103.788 139.867 104.252 140.327C104.721 140.786 105.086 141.364 105.346 142.06C105.607 142.751 105.737 143.561 105.737 144.489V145.32H96.5252V143.445H102.889C102.889 143.009 102.794 142.623 102.605 142.287C102.415 141.951 102.153 141.688 101.816 141.499C101.485 141.304 101.099 141.207 100.659 141.207C100.199 141.207 99.7923 141.314 99.4371 141.527C99.0868 141.735 98.8121 142.017 98.6133 142.372C98.4144 142.723 98.3126 143.113 98.3079 143.544V145.327C98.3079 145.866 98.4073 146.333 98.6062 146.726C98.8098 147.119 99.0962 147.422 99.4656 147.635C99.8349 147.848 100.273 147.955 100.779 147.955C101.116 147.955 101.423 147.907 101.703 147.812C101.982 147.718 102.221 147.576 102.42 147.386C102.619 147.197 102.77 146.965 102.875 146.69L105.673 146.875C105.531 147.547 105.24 148.134 104.799 148.636C104.364 149.134 103.8 149.522 103.109 149.801C102.422 150.076 101.629 150.213 100.73 150.213ZM118.738 150.185C118.269 150.185 117.866 150.019 117.53 149.688C117.199 149.351 117.033 148.949 117.033 148.48C117.033 148.016 117.199 147.618 117.53 147.287C117.866 146.955 118.269 146.79 118.738 146.79C119.192 146.79 119.59 146.955 119.931 147.287C120.272 147.618 120.442 148.016 120.442 148.48C120.442 148.793 120.362 149.079 120.201 149.339C120.044 149.595 119.838 149.801 119.583 149.957C119.327 150.109 119.045 150.185 118.738 150.185ZM118.738 142.543C118.269 142.543 117.866 142.377 117.53 142.045C117.199 141.714 117.033 141.312 117.033 140.838C117.033 140.374 117.199 139.979 117.53 139.652C117.866 139.321 118.269 139.155 118.738 139.155C119.192 139.155 119.59 139.321 119.931 139.652C120.272 139.979 120.442 140.374 120.442 140.838C120.442 141.155 120.362 141.444 120.201 141.705C120.044 141.96 119.838 142.164 119.583 142.315C119.327 142.467 119.045 142.543 118.738 142.543ZM134.345 150V132.545H141.232C142.555 132.545 143.683 132.798 144.615 133.304C145.547 133.804 146.257 134.5 146.746 135.392C147.24 136.278 147.487 137.301 147.487 138.46C147.487 139.619 147.237 140.642 146.737 141.528C146.237 142.415 145.513 143.105 144.564 143.599C143.621 144.094 142.479 144.341 141.138 144.341H136.749V141.384H140.541C141.251 141.384 141.837 141.261 142.297 141.017C142.763 140.767 143.109 140.423 143.337 139.986C143.57 139.543 143.686 139.034 143.686 138.46C143.686 137.881 143.57 137.375 143.337 136.943C143.109 136.506 142.763 136.168 142.297 135.929C141.831 135.685 141.24 135.562 140.524 135.562H138.036V150H134.345ZM153.197 150.247C152.362 150.247 151.618 150.102 150.964 149.812C150.311 149.517 149.794 149.082 149.413 148.509C149.038 147.929 148.851 147.207 148.851 146.344C148.851 145.616 148.984 145.006 149.251 144.511C149.518 144.017 149.882 143.619 150.342 143.318C150.803 143.017 151.325 142.79 151.911 142.636C152.501 142.483 153.121 142.375 153.768 142.312C154.53 142.233 155.143 142.159 155.609 142.091C156.075 142.017 156.413 141.909 156.624 141.767C156.834 141.625 156.939 141.415 156.939 141.136V141.085C156.939 140.545 156.768 140.128 156.428 139.832C156.092 139.537 155.615 139.389 154.996 139.389C154.342 139.389 153.822 139.534 153.436 139.824C153.05 140.108 152.794 140.466 152.669 140.898L149.311 140.625C149.482 139.83 149.817 139.142 150.317 138.562C150.817 137.977 151.462 137.528 152.251 137.216C153.047 136.898 153.967 136.739 155.013 136.739C155.74 136.739 156.436 136.824 157.101 136.994C157.771 137.165 158.365 137.429 158.882 137.787C159.405 138.145 159.817 138.605 160.118 139.168C160.419 139.724 160.57 140.392 160.57 141.17V150H157.126V148.185H157.024C156.814 148.594 156.533 148.955 156.18 149.267C155.828 149.574 155.405 149.815 154.911 149.991C154.416 150.162 153.845 150.247 153.197 150.247ZM154.237 147.741C154.771 147.741 155.243 147.636 155.652 147.426C156.061 147.21 156.382 146.92 156.615 146.557C156.848 146.193 156.964 145.781 156.964 145.321V143.932C156.851 144.006 156.695 144.074 156.496 144.136C156.303 144.193 156.084 144.247 155.839 144.298C155.595 144.344 155.351 144.386 155.107 144.426C154.862 144.46 154.641 144.491 154.442 144.52C154.016 144.582 153.643 144.682 153.325 144.818C153.007 144.955 152.76 145.139 152.584 145.372C152.408 145.599 152.32 145.884 152.32 146.224C152.32 146.719 152.499 147.097 152.857 147.358C153.22 147.614 153.68 147.741 154.237 147.741ZM163.386 150V136.909H166.906V139.193H167.043C167.281 138.381 167.682 137.767 168.244 137.352C168.807 136.932 169.455 136.722 170.188 136.722C170.369 136.722 170.565 136.733 170.776 136.756C170.986 136.778 171.17 136.81 171.33 136.849V140.071C171.159 140.02 170.923 139.974 170.622 139.935C170.321 139.895 170.045 139.875 169.795 139.875C169.261 139.875 168.784 139.991 168.364 140.224C167.949 140.452 167.619 140.77 167.375 141.179C167.136 141.588 167.017 142.06 167.017 142.594V150H163.386ZM173.207 150V136.909H176.837V150H173.207ZM175.031 135.222C174.491 135.222 174.028 135.043 173.641 134.685C173.261 134.321 173.07 133.886 173.07 133.381C173.07 132.881 173.261 132.452 173.641 132.094C174.028 131.73 174.491 131.548 175.031 131.548C175.57 131.548 176.031 131.73 176.411 132.094C176.798 132.452 176.991 132.881 176.991 133.381C176.991 133.886 176.798 134.321 176.411 134.685C176.031 135.043 175.57 135.222 175.031 135.222ZM183.376 142.432V150H179.746V136.909H183.206V139.219H183.359C183.649 138.457 184.135 137.855 184.817 137.412C185.499 136.963 186.325 136.739 187.297 136.739C188.206 136.739 188.999 136.938 189.675 137.335C190.351 137.733 190.876 138.301 191.251 139.04C191.626 139.773 191.814 140.648 191.814 141.665V150H188.183V142.312C188.189 141.511 187.984 140.886 187.57 140.438C187.155 139.983 186.584 139.756 185.857 139.756C185.368 139.756 184.936 139.861 184.561 140.071C184.192 140.281 183.902 140.588 183.692 140.991C183.487 141.389 183.382 141.869 183.376 142.432ZM196.448 154.909C195.988 154.909 195.556 154.872 195.153 154.798C194.755 154.73 194.425 154.642 194.164 154.534L194.982 151.824C195.408 151.955 195.792 152.026 196.133 152.037C196.479 152.048 196.778 151.969 197.028 151.798C197.283 151.628 197.491 151.338 197.65 150.929L197.863 150.375L193.167 136.909H196.985L199.695 146.523H199.832L202.567 136.909H206.411L201.323 151.415C201.079 152.119 200.746 152.733 200.326 153.256C199.911 153.784 199.386 154.19 198.749 154.474C198.113 154.764 197.346 154.909 196.448 154.909ZM211.651 150.247C210.815 150.247 210.071 150.102 209.418 149.812C208.764 149.517 208.247 149.082 207.866 148.509C207.491 147.929 207.304 147.207 207.304 146.344C207.304 145.616 207.438 145.006 207.705 144.511C207.972 144.017 208.335 143.619 208.795 143.318C209.256 143.017 209.778 142.79 210.364 142.636C210.955 142.483 211.574 142.375 212.222 142.312C212.983 142.233 213.597 142.159 214.062 142.091C214.528 142.017 214.866 141.909 215.077 141.767C215.287 141.625 215.392 141.415 215.392 141.136V141.085C215.392 140.545 215.222 140.128 214.881 139.832C214.545 139.537 214.068 139.389 213.449 139.389C212.795 139.389 212.276 139.534 211.889 139.824C211.503 140.108 211.247 140.466 211.122 140.898L207.764 140.625C207.935 139.83 208.27 139.142 208.77 138.562C209.27 137.977 209.915 137.528 210.705 137.216C211.5 136.898 212.42 136.739 213.466 136.739C214.193 136.739 214.889 136.824 215.554 136.994C216.224 137.165 216.818 137.429 217.335 137.787C217.858 138.145 218.27 138.605 218.571 139.168C218.872 139.724 219.023 140.392 219.023 141.17V150H215.58V148.185H215.477C215.267 148.594 214.986 148.955 214.634 149.267C214.281 149.574 213.858 149.815 213.364 149.991C212.869 150.162 212.298 150.247 211.651 150.247ZM212.69 147.741C213.224 147.741 213.696 147.636 214.105 147.426C214.514 147.21 214.835 146.92 215.068 146.557C215.301 146.193 215.418 145.781 215.418 145.321V143.932C215.304 144.006 215.148 144.074 214.949 144.136C214.756 144.193 214.537 144.247 214.293 144.298C214.048 144.344 213.804 144.386 213.56 144.426C213.315 144.46 213.094 144.491 212.895 144.52C212.469 144.582 212.097 144.682 211.778 144.818C211.46 144.955 211.213 145.139 211.037 145.372C210.861 145.599 210.773 145.884 210.773 146.224C210.773 146.719 210.952 147.097 211.31 147.358C211.673 147.614 212.134 147.741 212.69 147.741ZM236.946 150L231.952 132.545H235.983L238.872 144.673H239.017L242.205 132.545H245.656L248.835 144.699H248.989L251.878 132.545H255.909L250.915 150H247.318L243.994 138.588H243.858L240.543 150H236.946ZM262.325 150.256C261.001 150.256 259.856 149.974 258.89 149.412C257.93 148.844 257.188 148.054 256.665 147.043C256.143 146.026 255.881 144.847 255.881 143.506C255.881 142.153 256.143 140.972 256.665 139.96C257.188 138.943 257.93 138.153 258.89 137.591C259.856 137.023 261.001 136.739 262.325 136.739C263.648 136.739 264.79 137.023 265.751 137.591C266.717 138.153 267.461 138.943 267.984 139.96C268.506 140.972 268.768 142.153 268.768 143.506C268.768 144.847 268.506 146.026 267.984 147.043C267.461 148.054 266.717 148.844 265.751 149.412C264.79 149.974 263.648 150.256 262.325 150.256ZM262.342 147.443C262.944 147.443 263.447 147.273 263.85 146.932C264.254 146.585 264.558 146.114 264.762 145.517C264.972 144.92 265.077 144.241 265.077 143.48C265.077 142.719 264.972 142.04 264.762 141.443C264.558 140.847 264.254 140.375 263.85 140.028C263.447 139.682 262.944 139.509 262.342 139.509C261.734 139.509 261.222 139.682 260.808 140.028C260.398 140.375 260.089 140.847 259.879 141.443C259.674 142.04 259.572 142.719 259.572 143.48C259.572 144.241 259.674 144.92 259.879 145.517C260.089 146.114 260.398 146.585 260.808 146.932C261.222 147.273 261.734 147.443 262.342 147.443ZM274.759 142.432V150H271.129V136.909H274.589V139.219H274.742C275.032 138.457 275.518 137.855 276.2 137.412C276.881 136.963 277.708 136.739 278.68 136.739C279.589 136.739 280.381 136.938 281.058 137.335C281.734 137.733 282.259 138.301 282.634 139.04C283.009 139.773 283.197 140.648 283.197 141.665V150H279.566V142.312C279.572 141.511 279.367 140.886 278.952 140.438C278.538 139.983 277.967 139.756 277.239 139.756C276.751 139.756 276.319 139.861 275.944 140.071C275.575 140.281 275.285 140.588 275.075 140.991C274.87 141.389 274.765 141.869 274.759 142.432ZM291.956 155.182C290.78 155.182 289.771 155.02 288.93 154.696C288.095 154.378 287.43 153.943 286.936 153.392C286.442 152.841 286.121 152.222 285.973 151.534L289.331 151.082C289.433 151.344 289.595 151.588 289.817 151.815C290.038 152.043 290.331 152.224 290.695 152.361C291.064 152.503 291.513 152.574 292.041 152.574C292.831 152.574 293.482 152.381 293.993 151.994C294.51 151.614 294.768 150.974 294.768 150.077V147.682H294.615C294.456 148.045 294.217 148.389 293.899 148.713C293.581 149.037 293.172 149.301 292.672 149.506C292.172 149.71 291.575 149.812 290.882 149.812C289.899 149.812 289.004 149.585 288.197 149.131C287.396 148.67 286.757 147.969 286.28 147.026C285.808 146.077 285.572 144.878 285.572 143.429C285.572 141.946 285.814 140.707 286.297 139.713C286.78 138.719 287.422 137.974 288.223 137.48C289.03 136.986 289.913 136.739 290.874 136.739C291.607 136.739 292.22 136.864 292.714 137.114C293.209 137.358 293.607 137.665 293.908 138.034C294.214 138.398 294.45 138.756 294.615 139.108H294.751V136.909H298.357V150.128C298.357 151.241 298.084 152.173 297.538 152.923C296.993 153.673 296.237 154.236 295.271 154.611C294.311 154.991 293.206 155.182 291.956 155.182ZM292.033 147.085C292.618 147.085 293.112 146.94 293.516 146.651C293.925 146.355 294.237 145.935 294.453 145.389C294.675 144.838 294.786 144.179 294.786 143.412C294.786 142.645 294.678 141.98 294.462 141.418C294.246 140.849 293.933 140.409 293.524 140.097C293.115 139.784 292.618 139.628 292.033 139.628C291.436 139.628 290.933 139.79 290.524 140.114C290.115 140.432 289.805 140.875 289.595 141.443C289.385 142.011 289.28 142.668 289.28 143.412C289.28 144.168 289.385 144.821 289.595 145.372C289.811 145.918 290.121 146.341 290.524 146.642C290.933 146.937 291.436 147.085 292.033 147.085ZM301.246 150V136.909H304.706V139.219H304.859C305.132 138.452 305.587 137.847 306.223 137.403C306.859 136.96 307.621 136.739 308.507 136.739C309.405 136.739 310.169 136.963 310.8 137.412C311.43 137.855 311.851 138.457 312.061 139.219H312.197C312.464 138.469 312.947 137.869 313.646 137.42C314.351 136.966 315.183 136.739 316.143 136.739C317.365 136.739 318.357 137.128 319.118 137.906C319.885 138.679 320.268 139.776 320.268 141.196V150H316.646V141.912C316.646 141.185 316.453 140.639 316.067 140.276C315.68 139.912 315.197 139.73 314.618 139.73C313.959 139.73 313.445 139.94 313.075 140.361C312.706 140.776 312.521 141.324 312.521 142.006V150H309.001V141.835C309.001 141.193 308.817 140.682 308.447 140.301C308.084 139.92 307.604 139.73 307.007 139.73C306.604 139.73 306.24 139.832 305.916 140.037C305.598 140.236 305.345 140.517 305.158 140.881C304.97 141.239 304.876 141.659 304.876 142.142V150H301.246ZM326.869 150.247C326.034 150.247 325.29 150.102 324.636 149.812C323.983 149.517 323.466 149.082 323.085 148.509C322.71 147.929 322.523 147.207 322.523 146.344C322.523 145.616 322.656 145.006 322.923 144.511C323.19 144.017 323.554 143.619 324.014 143.318C324.474 143.017 324.997 142.79 325.582 142.636C326.173 142.483 326.793 142.375 327.44 142.312C328.202 142.233 328.815 142.159 329.281 142.091C329.747 142.017 330.085 141.909 330.295 141.767C330.506 141.625 330.611 141.415 330.611 141.136V141.085C330.611 140.545 330.44 140.128 330.099 139.832C329.764 139.537 329.287 139.389 328.668 139.389C328.014 139.389 327.494 139.534 327.108 139.824C326.722 140.108 326.466 140.466 326.341 140.898L322.983 140.625C323.153 139.83 323.489 139.142 323.989 138.562C324.489 137.977 325.134 137.528 325.923 137.216C326.719 136.898 327.639 136.739 328.685 136.739C329.412 136.739 330.108 136.824 330.773 136.994C331.443 137.165 332.037 137.429 332.554 137.787C333.077 138.145 333.489 138.605 333.79 139.168C334.091 139.724 334.241 140.392 334.241 141.17V150H330.798V148.185H330.696C330.486 148.594 330.205 148.955 329.852 149.267C329.5 149.574 329.077 149.815 328.582 149.991C328.088 150.162 327.517 150.247 326.869 150.247ZM327.909 147.741C328.443 147.741 328.915 147.636 329.324 147.426C329.733 147.21 330.054 146.92 330.287 146.557C330.52 146.193 330.636 145.781 330.636 145.321V143.932C330.523 144.006 330.366 144.074 330.168 144.136C329.974 144.193 329.756 144.247 329.511 144.298C329.267 144.344 329.023 144.386 328.778 144.426C328.534 144.46 328.312 144.491 328.114 144.52C327.688 144.582 327.315 144.682 326.997 144.818C326.679 144.955 326.432 145.139 326.256 145.372C326.08 145.599 325.991 145.884 325.991 146.224C325.991 146.719 326.17 147.097 326.528 147.358C326.892 147.614 327.352 147.741 327.909 147.741ZM340.689 142.432V150H337.058V136.909H340.518V139.219H340.672C340.962 138.457 341.447 137.855 342.129 137.412C342.811 136.963 343.638 136.739 344.609 136.739C345.518 136.739 346.311 136.938 346.987 137.335C347.663 137.733 348.189 138.301 348.564 139.04C348.939 139.773 349.126 140.648 349.126 141.665V150H345.496V142.312C345.501 141.511 345.297 140.886 344.882 140.438C344.467 139.983 343.896 139.756 343.169 139.756C342.68 139.756 342.249 139.861 341.874 140.071C341.504 140.281 341.214 140.588 341.004 140.991C340.8 141.389 340.695 141.869 340.689 142.432ZM357.954 150.256C356.607 150.256 355.448 149.983 354.477 149.438C353.511 148.886 352.766 148.108 352.244 147.102C351.721 146.091 351.46 144.895 351.46 143.514C351.46 142.168 351.721 140.986 352.244 139.969C352.766 138.952 353.502 138.159 354.451 137.591C355.406 137.023 356.525 136.739 357.809 136.739C358.673 136.739 359.477 136.878 360.221 137.156C360.971 137.429 361.624 137.841 362.181 138.392C362.744 138.943 363.181 139.636 363.494 140.472C363.806 141.301 363.962 142.273 363.962 143.386V144.384H352.908V142.134H360.545C360.545 141.611 360.431 141.148 360.204 140.744C359.977 140.341 359.661 140.026 359.258 139.798C358.86 139.565 358.397 139.449 357.869 139.449C357.317 139.449 356.829 139.577 356.403 139.832C355.982 140.082 355.653 140.42 355.414 140.847C355.175 141.267 355.053 141.736 355.048 142.253V144.392C355.048 145.04 355.167 145.599 355.406 146.071C355.65 146.543 355.994 146.906 356.437 147.162C356.88 147.418 357.406 147.545 358.013 147.545C358.417 147.545 358.786 147.489 359.121 147.375C359.457 147.261 359.744 147.091 359.982 146.864C360.221 146.636 360.403 146.358 360.528 146.028L363.886 146.25C363.715 147.057 363.366 147.761 362.837 148.364C362.315 148.96 361.638 149.426 360.809 149.761C359.985 150.091 359.033 150.256 357.954 150.256ZM372.298 150.256C370.951 150.256 369.792 149.983 368.82 149.438C367.854 148.886 367.11 148.108 366.587 147.102C366.065 146.091 365.803 144.895 365.803 143.514C365.803 142.168 366.065 140.986 366.587 139.969C367.11 138.952 367.846 138.159 368.795 137.591C369.749 137.023 370.869 136.739 372.153 136.739C373.016 136.739 373.82 136.878 374.565 137.156C375.315 137.429 375.968 137.841 376.525 138.392C377.087 138.943 377.525 139.636 377.837 140.472C378.15 141.301 378.306 142.273 378.306 143.386V144.384H367.252V142.134H374.888C374.888 141.611 374.775 141.148 374.548 140.744C374.32 140.341 374.005 140.026 373.602 139.798C373.204 139.565 372.741 139.449 372.212 139.449C371.661 139.449 371.173 139.577 370.746 139.832C370.326 140.082 369.996 140.42 369.758 140.847C369.519 141.267 369.397 141.736 369.391 142.253V144.392C369.391 145.04 369.511 145.599 369.749 146.071C369.994 146.543 370.337 146.906 370.781 147.162C371.224 147.418 371.749 147.545 372.357 147.545C372.761 147.545 373.13 147.489 373.465 147.375C373.8 147.261 374.087 147.091 374.326 146.864C374.565 146.636 374.746 146.358 374.871 146.028L378.229 146.25C378.059 147.057 377.71 147.761 377.181 148.364C376.658 148.96 375.982 149.426 375.153 149.761C374.329 150.091 373.377 150.256 372.298 150.256Z" fill="white"/>
<path d="M63.4304 196.455V211H60.7741L54.446 201.845H54.3395V211H51.2642V196.455H53.9631L60.2415 205.602H60.3693V196.455H63.4304ZM65.9144 211V200.091H68.94V211H65.9144ZM67.4343 198.685C66.9845 198.685 66.5986 198.536 66.2766 198.237C65.9594 197.934 65.8008 197.572 65.8008 197.151C65.8008 196.734 65.9594 196.376 66.2766 196.078C66.5986 195.775 66.9845 195.624 67.4343 195.624C67.8841 195.624 68.2676 195.775 68.5849 196.078C68.9068 196.376 69.0678 196.734 69.0678 197.151C69.0678 197.572 68.9068 197.934 68.5849 198.237C68.2676 198.536 67.8841 198.685 67.4343 198.685ZM76.2926 211.213C75.1752 211.213 74.214 210.976 73.4091 210.503C72.6089 210.025 71.9934 209.362 71.5625 208.514C71.1364 207.667 70.9233 206.691 70.9233 205.588C70.9233 204.471 71.1387 203.491 71.5696 202.648C72.0052 201.8 72.6231 201.14 73.4233 200.666C74.2235 200.188 75.1752 199.949 76.2784 199.949C77.2301 199.949 78.0634 200.122 78.7784 200.467C79.4934 200.813 80.0592 201.298 80.4759 201.923C80.8925 202.548 81.1222 203.282 81.1648 204.125H78.3097C78.2292 203.58 78.0161 203.143 77.6705 202.811C77.3295 202.475 76.8821 202.307 76.3281 202.307C75.8594 202.307 75.4498 202.435 75.0994 202.69C74.7538 202.941 74.4839 203.308 74.2898 203.791C74.0956 204.274 73.9986 204.859 73.9986 205.545C73.9986 206.241 74.0933 206.833 74.2827 207.321C74.4768 207.809 74.7491 208.18 75.0994 208.436C75.4498 208.692 75.8594 208.82 76.3281 208.82C76.6738 208.82 76.9839 208.749 77.2585 208.607C77.5379 208.464 77.7675 208.259 77.9474 207.989C78.1321 207.714 78.2528 207.385 78.3097 207.001H81.1648C81.1174 207.835 80.8902 208.569 80.483 209.203C80.0805 209.833 79.5241 210.325 78.8139 210.68C78.1037 211.036 77.2633 211.213 76.2926 211.213ZM85.8434 207.861L85.8505 204.232H86.2908L89.7852 200.091H93.2582L88.5636 205.574H87.8462L85.8434 207.861ZM83.1019 211V196.455H86.1275V211H83.1019ZM89.9201 211L86.7099 206.249L88.7269 204.111L93.4641 211H89.9201ZM97.7681 204.693V211H94.7425V200.091H97.6261V202.016H97.7539C97.9954 201.381 98.4002 200.879 98.9684 200.51C99.5366 200.136 100.225 199.949 101.035 199.949C101.793 199.949 102.453 200.115 103.017 200.446C103.58 200.777 104.018 201.251 104.331 201.866C104.643 202.477 104.799 203.206 104.799 204.054V211H101.774V204.594C101.779 203.926 101.608 203.405 101.262 203.031C100.917 202.652 100.441 202.463 99.8349 202.463C99.4277 202.463 99.0678 202.551 98.7553 202.726C98.4476 202.901 98.2061 203.157 98.0309 203.493C97.8604 203.824 97.7728 204.224 97.7681 204.693ZM110.295 211.206C109.599 211.206 108.978 211.085 108.434 210.844C107.889 210.598 107.459 210.235 107.141 209.757C106.829 209.274 106.673 208.673 106.673 207.953C106.673 207.347 106.784 206.838 107.006 206.426C107.229 206.014 107.532 205.683 107.915 205.432C108.299 205.181 108.735 204.991 109.222 204.864C109.715 204.736 110.231 204.646 110.771 204.594C111.405 204.527 111.916 204.466 112.305 204.409C112.693 204.348 112.975 204.258 113.15 204.139C113.325 204.021 113.413 203.846 113.413 203.614V203.571C113.413 203.121 113.271 202.773 112.987 202.527C112.707 202.281 112.309 202.158 111.793 202.158C111.249 202.158 110.816 202.278 110.494 202.52C110.172 202.757 109.959 203.055 109.854 203.415L107.056 203.188C107.198 202.525 107.478 201.952 107.894 201.469C108.311 200.981 108.848 200.607 109.506 200.347C110.169 200.081 110.936 199.949 111.808 199.949C112.414 199.949 112.994 200.02 113.548 200.162C114.106 200.304 114.601 200.524 115.032 200.822C115.468 201.121 115.811 201.504 116.062 201.973C116.313 202.437 116.438 202.993 116.438 203.642V211H113.569V209.487H113.484C113.308 209.828 113.074 210.129 112.781 210.389C112.487 210.645 112.134 210.846 111.722 210.993C111.31 211.135 110.835 211.206 110.295 211.206ZM111.161 209.118C111.606 209.118 111.999 209.03 112.34 208.855C112.681 208.675 112.949 208.434 113.143 208.131C113.337 207.828 113.434 207.484 113.434 207.101V205.943C113.339 206.005 113.209 206.062 113.043 206.114C112.882 206.161 112.7 206.206 112.496 206.249C112.293 206.286 112.089 206.322 111.886 206.355C111.682 206.384 111.497 206.41 111.332 206.433C110.977 206.485 110.666 206.568 110.401 206.682C110.136 206.795 109.93 206.949 109.783 207.143C109.637 207.333 109.563 207.57 109.563 207.854C109.563 208.266 109.712 208.58 110.011 208.798C110.314 209.011 110.697 209.118 111.161 209.118ZM118.786 211V200.091H121.669V202.016H121.797C122.024 201.376 122.403 200.872 122.933 200.503C123.464 200.134 124.098 199.949 124.837 199.949C125.585 199.949 126.222 200.136 126.747 200.51C127.273 200.879 127.623 201.381 127.798 202.016H127.912C128.134 201.391 128.537 200.891 129.119 200.517C129.706 200.138 130.4 199.949 131.2 199.949C132.218 199.949 133.045 200.273 133.679 200.922C134.318 201.566 134.638 202.48 134.638 203.663V211H131.619V204.26C131.619 203.654 131.458 203.199 131.136 202.896C130.814 202.593 130.412 202.442 129.929 202.442C129.38 202.442 128.951 202.617 128.643 202.967C128.336 203.313 128.182 203.77 128.182 204.338V211H125.249V204.196C125.249 203.661 125.095 203.235 124.787 202.918C124.484 202.6 124.084 202.442 123.587 202.442C123.25 202.442 122.947 202.527 122.678 202.697C122.412 202.863 122.202 203.098 122.045 203.401C121.889 203.699 121.811 204.049 121.811 204.452V211H118.786ZM141.999 211.213C140.877 211.213 139.911 210.986 139.102 210.531C138.297 210.072 137.676 209.423 137.241 208.585C136.805 207.742 136.587 206.746 136.587 205.595C136.587 204.473 136.805 203.488 137.241 202.641C137.676 201.793 138.29 201.133 139.08 200.659C139.876 200.186 140.808 199.949 141.879 199.949C142.598 199.949 143.268 200.065 143.888 200.297C144.513 200.524 145.058 200.867 145.522 201.327C145.991 201.786 146.355 202.364 146.616 203.06C146.876 203.751 147.006 204.561 147.006 205.489V206.32H137.795V204.445H144.158C144.158 204.009 144.064 203.623 143.874 203.287C143.685 202.951 143.422 202.688 143.086 202.499C142.754 202.304 142.369 202.207 141.928 202.207C141.469 202.207 141.062 202.314 140.707 202.527C140.356 202.735 140.082 203.017 139.883 203.372C139.684 203.723 139.582 204.113 139.577 204.544V206.327C139.577 206.866 139.677 207.333 139.876 207.726C140.079 208.119 140.366 208.422 140.735 208.635C141.104 208.848 141.542 208.955 142.049 208.955C142.385 208.955 142.693 208.907 142.972 208.812C143.252 208.718 143.491 208.576 143.69 208.386C143.888 208.197 144.04 207.965 144.144 207.69L146.942 207.875C146.8 208.547 146.509 209.134 146.069 209.636C145.633 210.134 145.07 210.522 144.379 210.801C143.692 211.076 142.899 211.213 141.999 211.213ZM160.007 211.185C159.538 211.185 159.136 211.019 158.8 210.688C158.468 210.351 158.303 209.949 158.303 209.48C158.303 209.016 158.468 208.618 158.8 208.287C159.136 207.955 159.538 207.79 160.007 207.79C160.462 207.79 160.859 207.955 161.2 208.287C161.541 208.618 161.712 209.016 161.712 209.48C161.712 209.793 161.631 210.079 161.47 210.339C161.314 210.595 161.108 210.801 160.852 210.957C160.597 211.109 160.315 211.185 160.007 211.185ZM160.007 203.543C159.538 203.543 159.136 203.377 158.8 203.045C158.468 202.714 158.303 202.312 158.303 201.838C158.303 201.374 158.468 200.979 158.8 200.652C159.136 200.321 159.538 200.155 160.007 200.155C160.462 200.155 160.859 200.321 161.2 200.652C161.541 200.979 161.712 201.374 161.712 201.838C161.712 202.155 161.631 202.444 161.47 202.705C161.314 202.96 161.108 203.164 160.852 203.315C160.597 203.467 160.315 203.543 160.007 203.543ZM174.689 211V193.545H181.678C182.962 193.545 184.033 193.736 184.891 194.116C185.749 194.497 186.393 195.026 186.825 195.702C187.257 196.372 187.473 197.145 187.473 198.02C187.473 198.702 187.337 199.301 187.064 199.818C186.791 200.33 186.416 200.75 185.939 201.08C185.467 201.403 184.928 201.634 184.32 201.77V201.94C184.984 201.969 185.607 202.156 186.186 202.503C186.771 202.849 187.246 203.335 187.609 203.96C187.973 204.58 188.155 205.318 188.155 206.176C188.155 207.102 187.925 207.929 187.464 208.656C187.01 209.378 186.337 209.949 185.445 210.369C184.553 210.79 183.453 211 182.146 211H174.689ZM178.379 207.983H181.388C182.416 207.983 183.166 207.787 183.638 207.395C184.109 206.997 184.345 206.469 184.345 205.81C184.345 205.327 184.229 204.901 183.996 204.531C183.763 204.162 183.43 203.872 182.999 203.662C182.572 203.452 182.064 203.347 181.473 203.347H178.379V207.983ZM178.379 200.849H181.115C181.621 200.849 182.07 200.761 182.462 200.585C182.859 200.403 183.172 200.148 183.399 199.818C183.632 199.489 183.749 199.094 183.749 198.634C183.749 198.003 183.524 197.494 183.075 197.108C182.632 196.722 182.001 196.528 181.183 196.528H178.379V200.849ZM196.454 211.256C195.107 211.256 193.948 210.983 192.977 210.438C192.011 209.886 191.266 209.108 190.744 208.102C190.221 207.091 189.96 205.895 189.96 204.514C189.96 203.168 190.221 201.986 190.744 200.969C191.266 199.952 192.002 199.159 192.951 198.591C193.906 198.023 195.025 197.739 196.309 197.739C197.173 197.739 197.977 197.878 198.721 198.156C199.471 198.429 200.124 198.841 200.681 199.392C201.244 199.943 201.681 200.636 201.994 201.472C202.306 202.301 202.462 203.273 202.462 204.386V205.384H191.408V203.134H199.045C199.045 202.611 198.931 202.148 198.704 201.744C198.477 201.341 198.161 201.026 197.758 200.798C197.36 200.565 196.897 200.449 196.369 200.449C195.817 200.449 195.329 200.577 194.903 200.832C194.482 201.082 194.153 201.42 193.914 201.847C193.675 202.267 193.553 202.736 193.548 203.253V205.392C193.548 206.04 193.667 206.599 193.906 207.071C194.15 207.543 194.494 207.906 194.937 208.162C195.38 208.418 195.906 208.545 196.513 208.545C196.917 208.545 197.286 208.489 197.621 208.375C197.957 208.261 198.244 208.091 198.482 207.864C198.721 207.636 198.903 207.358 199.028 207.028L202.386 207.25C202.215 208.057 201.866 208.761 201.337 209.364C200.815 209.96 200.138 210.426 199.309 210.761C198.485 211.091 197.533 211.256 196.454 211.256ZM215.724 201.642L212.4 201.847C212.343 201.562 212.221 201.307 212.033 201.08C211.846 200.847 211.599 200.662 211.292 200.526C210.991 200.384 210.63 200.312 210.21 200.312C209.647 200.312 209.173 200.432 208.786 200.67C208.4 200.903 208.207 201.216 208.207 201.608C208.207 201.92 208.332 202.185 208.582 202.401C208.832 202.616 209.261 202.79 209.869 202.92L212.238 203.398C213.511 203.659 214.46 204.08 215.085 204.659C215.71 205.239 216.022 206 216.022 206.943C216.022 207.801 215.769 208.554 215.263 209.202C214.763 209.849 214.076 210.355 213.201 210.719C212.332 211.077 211.329 211.256 210.192 211.256C208.46 211.256 207.079 210.895 206.05 210.173C205.028 209.446 204.428 208.457 204.252 207.207L207.823 207.02C207.931 207.548 208.192 207.952 208.607 208.23C209.022 208.503 209.553 208.639 210.201 208.639C210.837 208.639 211.349 208.517 211.735 208.273C212.127 208.023 212.326 207.702 212.332 207.31C212.326 206.98 212.187 206.71 211.914 206.5C211.641 206.284 211.221 206.119 210.653 206.006L208.386 205.554C207.107 205.298 206.156 204.855 205.531 204.224C204.911 203.594 204.602 202.79 204.602 201.812C204.602 200.972 204.829 200.247 205.283 199.639C205.744 199.031 206.388 198.562 207.218 198.233C208.053 197.903 209.031 197.739 210.15 197.739C211.803 197.739 213.104 198.088 214.053 198.787C215.008 199.486 215.565 200.437 215.724 201.642Z" fill="white"/>
<path d="M51.2642 272V257.455H60.8949V259.99H54.3395V263.456H60.2557V265.991H54.3395V272H51.2642ZM62.7308 272V261.091H65.6641V262.994H65.7777C65.9766 262.317 66.3104 261.806 66.7791 261.46C67.2479 261.11 67.7876 260.935 68.3984 260.935C68.55 260.935 68.7133 260.944 68.8885 260.963C69.0637 260.982 69.2176 261.008 69.3501 261.041V263.726C69.2081 263.683 69.0116 263.645 68.7607 263.612C68.5097 263.579 68.2801 263.562 68.0717 263.562C67.6267 263.562 67.2289 263.66 66.8786 263.854C66.5329 264.043 66.2583 264.308 66.0547 264.649C65.8558 264.99 65.7564 265.383 65.7564 265.828V272H62.7308ZM75.3356 272.213C74.2324 272.213 73.2783 271.979 72.4734 271.51C71.6732 271.036 71.0553 270.378 70.6197 269.536C70.1841 268.688 69.9663 267.705 69.9663 266.588C69.9663 265.461 70.1841 264.476 70.6197 263.634C71.0553 262.786 71.6732 262.128 72.4734 261.659C73.2783 261.186 74.2324 260.949 75.3356 260.949C76.4388 260.949 77.3905 261.186 78.1907 261.659C78.9956 262.128 79.6159 262.786 80.0515 263.634C80.4871 264.476 80.7049 265.461 80.7049 266.588C80.7049 267.705 80.4871 268.688 80.0515 269.536C79.6159 270.378 78.9956 271.036 78.1907 271.51C77.3905 271.979 76.4388 272.213 75.3356 272.213ZM75.3498 269.869C75.8517 269.869 76.2707 269.727 76.6069 269.443C76.9431 269.154 77.1964 268.761 77.3668 268.264C77.542 267.767 77.6296 267.201 77.6296 266.567C77.6296 265.932 77.542 265.366 77.3668 264.869C77.1964 264.372 76.9431 263.979 76.6069 263.69C76.2707 263.402 75.8517 263.257 75.3498 263.257C74.8432 263.257 74.417 263.402 74.0714 263.69C73.7305 263.979 73.4724 264.372 73.2972 264.869C73.1268 265.366 73.0415 265.932 73.0415 266.567C73.0415 267.201 73.1268 267.767 73.2972 268.264C73.4724 268.761 73.7305 269.154 74.0714 269.443C74.417 269.727 74.8432 269.869 75.3498 269.869ZM82.6722 272V261.091H85.5558V263.016H85.6836C85.9109 262.376 86.2897 261.872 86.82 261.503C87.3503 261.134 87.9847 260.949 88.7234 260.949C89.4715 260.949 90.1083 261.136 90.6339 261.51C91.1594 261.879 91.5098 262.381 91.685 263.016H91.7987C92.0212 262.391 92.4237 261.891 93.006 261.517C93.5932 261.138 94.2868 260.949 95.087 260.949C96.105 260.949 96.9312 261.273 97.5657 261.922C98.2049 262.566 98.5245 263.48 98.5245 264.663V272H95.506V265.26C95.506 264.654 95.3451 264.199 95.0231 263.896C94.7011 263.593 94.2987 263.442 93.8157 263.442C93.2665 263.442 92.8379 263.617 92.5302 263.967C92.2224 264.313 92.0685 264.77 92.0685 265.338V272H89.1353V265.196C89.1353 264.661 88.9814 264.235 88.6737 263.918C88.3706 263.6 87.9705 263.442 87.4734 263.442C87.1372 263.442 86.8342 263.527 86.5643 263.697C86.2991 263.863 86.0884 264.098 85.9322 264.401C85.7759 264.699 85.6978 265.049 85.6978 265.452V272H82.6722ZM111.941 272.185C111.472 272.185 111.069 272.019 110.733 271.688C110.402 271.351 110.236 270.949 110.236 270.48C110.236 270.016 110.402 269.618 110.733 269.287C111.069 268.955 111.472 268.79 111.941 268.79C112.395 268.79 112.793 268.955 113.134 269.287C113.475 269.618 113.645 270.016 113.645 270.48C113.645 270.793 113.565 271.079 113.404 271.339C113.248 271.595 113.042 271.801 112.786 271.957C112.53 272.109 112.248 272.185 111.941 272.185ZM111.941 264.543C111.472 264.543 111.069 264.377 110.733 264.045C110.402 263.714 110.236 263.312 110.236 262.838C110.236 262.374 110.402 261.979 110.733 261.652C111.069 261.321 111.472 261.155 111.941 261.155C112.395 261.155 112.793 261.321 113.134 261.652C113.475 261.979 113.645 262.374 113.645 262.838C113.645 263.155 113.565 263.444 113.404 263.705C113.248 263.96 113.042 264.164 112.786 264.315C112.53 264.467 112.248 264.543 111.941 264.543ZM125.032 257.588V254.545H139.367V257.588H134.023V272H130.376V257.588H125.032ZM145.29 264.432V272H141.66V254.545H145.188V261.219H145.342C145.637 260.446 146.114 259.841 146.773 259.403C147.433 258.96 148.259 258.739 149.254 258.739C150.163 258.739 150.955 258.938 151.631 259.335C152.313 259.727 152.842 260.293 153.217 261.031C153.597 261.764 153.785 262.642 153.779 263.665V272H150.148V264.312C150.154 263.506 149.95 262.878 149.535 262.429C149.126 261.98 148.552 261.756 147.813 261.756C147.319 261.756 146.881 261.861 146.501 262.071C146.126 262.281 145.83 262.588 145.614 262.991C145.404 263.389 145.296 263.869 145.29 264.432ZM160.369 272.247C159.534 272.247 158.79 272.102 158.136 271.812C157.483 271.517 156.966 271.082 156.585 270.509C156.21 269.929 156.023 269.207 156.023 268.344C156.023 267.616 156.156 267.006 156.423 266.511C156.69 266.017 157.054 265.619 157.514 265.318C157.974 265.017 158.497 264.79 159.082 264.636C159.673 264.483 160.293 264.375 160.94 264.312C161.702 264.233 162.315 264.159 162.781 264.091C163.247 264.017 163.585 263.909 163.795 263.767C164.006 263.625 164.111 263.415 164.111 263.136V263.085C164.111 262.545 163.94 262.128 163.599 261.832C163.264 261.537 162.787 261.389 162.168 261.389C161.514 261.389 160.994 261.534 160.608 261.824C160.222 262.108 159.966 262.466 159.841 262.898L156.483 262.625C156.653 261.83 156.989 261.142 157.489 260.562C157.989 259.977 158.634 259.528 159.423 259.216C160.219 258.898 161.139 258.739 162.185 258.739C162.912 258.739 163.608 258.824 164.273 258.994C164.943 259.165 165.537 259.429 166.054 259.787C166.577 260.145 166.989 260.605 167.29 261.168C167.591 261.724 167.741 262.392 167.741 263.17V272H164.298V270.185H164.196C163.986 270.594 163.705 270.955 163.352 271.267C163 271.574 162.577 271.815 162.082 271.991C161.588 272.162 161.017 272.247 160.369 272.247ZM161.409 269.741C161.943 269.741 162.415 269.636 162.824 269.426C163.233 269.21 163.554 268.92 163.787 268.557C164.02 268.193 164.136 267.781 164.136 267.321V265.932C164.023 266.006 163.866 266.074 163.668 266.136C163.474 266.193 163.256 266.247 163.011 266.298C162.767 266.344 162.523 266.386 162.278 266.426C162.034 266.46 161.812 266.491 161.614 266.52C161.188 266.582 160.815 266.682 160.497 266.818C160.179 266.955 159.932 267.139 159.756 267.372C159.58 267.599 159.491 267.884 159.491 268.224C159.491 268.719 159.67 269.097 160.028 269.358C160.392 269.614 160.852 269.741 161.409 269.741ZM170.558 272V258.909H174.189V272H170.558ZM172.382 257.222C171.842 257.222 171.379 257.043 170.993 256.685C170.612 256.321 170.422 255.886 170.422 255.381C170.422 254.881 170.612 254.452 170.993 254.094C171.379 253.73 171.842 253.548 172.382 253.548C172.922 253.548 173.382 253.73 173.763 254.094C174.149 254.452 174.342 254.881 174.342 255.381C174.342 255.886 174.149 256.321 173.763 256.685C173.382 257.043 172.922 257.222 172.382 257.222ZM180.728 254.545V272H177.097V254.545H180.728ZM187.369 272.247C186.534 272.247 185.79 272.102 185.136 271.812C184.483 271.517 183.966 271.082 183.585 270.509C183.21 269.929 183.023 269.207 183.023 268.344C183.023 267.616 183.156 267.006 183.423 266.511C183.69 266.017 184.054 265.619 184.514 265.318C184.974 265.017 185.497 264.79 186.082 264.636C186.673 264.483 187.293 264.375 187.94 264.312C188.702 264.233 189.315 264.159 189.781 264.091C190.247 264.017 190.585 263.909 190.795 263.767C191.006 263.625 191.111 263.415 191.111 263.136V263.085C191.111 262.545 190.94 262.128 190.599 261.832C190.264 261.537 189.787 261.389 189.168 261.389C188.514 261.389 187.994 261.534 187.608 261.824C187.222 262.108 186.966 262.466 186.841 262.898L183.483 262.625C183.653 261.83 183.989 261.142 184.489 260.562C184.989 259.977 185.634 259.528 186.423 259.216C187.219 258.898 188.139 258.739 189.185 258.739C189.912 258.739 190.608 258.824 191.273 258.994C191.943 259.165 192.537 259.429 193.054 259.787C193.577 260.145 193.989 260.605 194.29 261.168C194.591 261.724 194.741 262.392 194.741 263.17V272H191.298V270.185H191.196C190.986 270.594 190.705 270.955 190.352 271.267C190 271.574 189.577 271.815 189.082 271.991C188.588 272.162 188.017 272.247 187.369 272.247ZM188.409 269.741C188.943 269.741 189.415 269.636 189.824 269.426C190.233 269.21 190.554 268.92 190.787 268.557C191.02 268.193 191.136 267.781 191.136 267.321V265.932C191.023 266.006 190.866 266.074 190.668 266.136C190.474 266.193 190.256 266.247 190.011 266.298C189.767 266.344 189.523 266.386 189.278 266.426C189.034 266.46 188.812 266.491 188.614 266.52C188.188 266.582 187.815 266.682 187.497 266.818C187.179 266.955 186.932 267.139 186.756 267.372C186.58 267.599 186.491 267.884 186.491 268.224C186.491 268.719 186.67 269.097 187.028 269.358C187.392 269.614 187.852 269.741 188.409 269.741ZM201.189 264.432V272H197.558V258.909H201.018V261.219H201.172C201.462 260.457 201.947 259.855 202.629 259.412C203.311 258.963 204.138 258.739 205.109 258.739C206.018 258.739 206.811 258.938 207.487 259.335C208.163 259.733 208.689 260.301 209.064 261.04C209.439 261.773 209.626 262.648 209.626 263.665V272H205.996V264.312C206.001 263.511 205.797 262.886 205.382 262.438C204.967 261.983 204.396 261.756 203.669 261.756C203.18 261.756 202.749 261.861 202.374 262.071C202.004 262.281 201.714 262.588 201.504 262.991C201.3 263.389 201.195 263.869 201.189 264.432ZM217.312 272.213C216.317 272.213 215.417 271.957 214.61 271.446C213.809 270.929 213.173 270.17 212.701 269.17C212.235 268.165 212.002 266.932 212.002 265.472C212.002 263.972 212.244 262.724 212.727 261.73C213.21 260.73 213.852 259.983 214.653 259.489C215.46 258.989 216.343 258.739 217.303 258.739C218.036 258.739 218.647 258.864 219.136 259.114C219.63 259.358 220.028 259.665 220.329 260.034C220.636 260.398 220.869 260.756 221.028 261.108H221.138V254.545H224.761V272H221.181V269.903H221.028C220.857 270.267 220.616 270.628 220.303 270.986C219.996 271.338 219.596 271.631 219.102 271.864C218.613 272.097 218.016 272.213 217.312 272.213ZM218.462 269.324C219.048 269.324 219.542 269.165 219.945 268.847C220.354 268.523 220.667 268.071 220.883 267.491C221.104 266.912 221.215 266.233 221.215 265.455C221.215 264.676 221.107 264 220.891 263.426C220.675 262.852 220.363 262.409 219.954 262.097C219.545 261.784 219.048 261.628 218.462 261.628C217.866 261.628 217.363 261.79 216.954 262.114C216.545 262.437 216.235 262.886 216.025 263.46C215.815 264.034 215.71 264.699 215.71 265.455C215.71 266.216 215.815 266.889 216.025 267.474C216.241 268.054 216.55 268.509 216.954 268.838C217.363 269.162 217.866 269.324 218.462 269.324Z" fill="white"/>
<path d="M64.3537 56H60.3991L66.4247 38.5455H71.1804L77.1974 56H73.2429L68.8707 42.5341H68.7344L64.3537 56ZM64.1065 49.1392H73.4474V52.0199H64.1065V49.1392ZM79.2983 56V38.5455H86.2869C87.571 38.5455 88.642 38.7358 89.5 39.1165C90.358 39.4972 91.0028 40.0256 91.4347 40.7017C91.8665 41.3722 92.0824 42.1449 92.0824 43.0199C92.0824 43.7017 91.946 44.3011 91.6733 44.8182C91.4006 45.3295 91.0256 45.75 90.5483 46.0795C90.0767 46.4034 89.5369 46.6335 88.929 46.7699V46.9403C89.5938 46.9687 90.2159 47.1562 90.7955 47.5028C91.3807 47.8494 91.8551 48.3352 92.2188 48.9602C92.5824 49.5795 92.7642 50.3182 92.7642 51.1761C92.7642 52.1023 92.5341 52.929 92.0739 53.6562C91.6193 54.3778 90.946 54.9489 90.054 55.3693C89.1619 55.7898 88.0625 56 86.7557 56H79.2983ZM82.9886 52.983H85.9972C87.0256 52.983 87.7756 52.7869 88.2472 52.3949C88.7188 51.9972 88.9545 51.4687 88.9545 50.8097C88.9545 50.3267 88.8381 49.9006 88.6051 49.5312C88.3722 49.1619 88.0398 48.8722 87.608 48.6619C87.1818 48.4517 86.6733 48.3466 86.0824 48.3466H82.9886V52.983ZM82.9886 45.8494H85.7244C86.2301 45.8494 86.679 45.7614 87.071 45.5852C87.4688 45.4034 87.7813 45.1477 88.0085 44.8182C88.2415 44.4886 88.358 44.0938 88.358 43.6335C88.358 43.0028 88.1335 42.4943 87.6847 42.108C87.2415 41.7216 86.6108 41.5284 85.7926 41.5284H82.9886V45.8494ZM111.205 47.2727C111.205 49.1761 110.844 50.7955 110.123 52.1307C109.407 53.4659 108.43 54.4858 107.191 55.1903C105.958 55.8892 104.572 56.2386 103.032 56.2386C101.481 56.2386 100.089 55.8864 98.8558 55.1818C97.6229 54.4773 96.6484 53.4574 95.9325 52.1222C95.2166 50.7869 94.8587 49.1705 94.8587 47.2727C94.8587 45.3693 95.2166 43.75 95.9325 42.4148C96.6484 41.0795 97.6229 40.0625 98.8558 39.3636C100.089 38.6591 101.481 38.3068 103.032 38.3068C104.572 38.3068 105.958 38.6591 107.191 39.3636C108.43 40.0625 109.407 41.0795 110.123 42.4148C110.844 43.75 111.205 45.3693 111.205 47.2727ZM107.464 47.2727C107.464 46.0398 107.279 45 106.91 44.1534C106.546 43.3068 106.032 42.6648 105.367 42.2273C104.702 41.7898 103.924 41.571 103.032 41.571C102.14 41.571 101.362 41.7898 100.697 42.2273C100.032 42.6648 99.5149 43.3068 99.1456 44.1534C98.782 45 98.6001 46.0398 98.6001 47.2727C98.6001 48.5057 98.782 49.5455 99.1456 50.392C99.5149 51.2386 100.032 51.8807 100.697 52.3182C101.362 52.7557 102.14 52.9744 103.032 52.9744C103.924 52.9744 104.702 52.7557 105.367 52.3182C106.032 51.8807 106.546 51.2386 106.91 50.392C107.279 49.5455 107.464 48.5057 107.464 47.2727ZM124.72 38.5455H128.411V49.8807C128.411 51.1534 128.107 52.267 127.499 53.2216C126.896 54.1761 126.053 54.9205 124.967 55.4545C123.882 55.983 122.618 56.2472 121.175 56.2472C119.726 56.2472 118.459 55.983 117.374 55.4545C116.288 54.9205 115.445 54.1761 114.842 53.2216C114.24 52.267 113.939 51.1534 113.939 49.8807V38.5455H117.629V49.5653C117.629 50.2301 117.774 50.821 118.064 51.3381C118.359 51.8551 118.774 52.2614 119.308 52.5568C119.842 52.8523 120.464 53 121.175 53C121.891 53 122.513 52.8523 123.041 52.5568C123.575 52.2614 123.987 51.8551 124.277 51.3381C124.572 50.821 124.72 50.2301 124.72 49.5653V38.5455ZM130.782 41.5881V38.5455H145.117V41.5881H139.773V56H136.126V41.5881H130.782ZM153.033 38.5455H157.584L162.391 50.2727H162.595L167.402 38.5455H171.953V56H168.374V44.6392H168.229L163.712 55.9148H161.274L156.757 44.5966H156.612V56H153.033V38.5455ZM174.994 56V38.5455H186.755V41.5881H178.684V45.7472H186.15V48.7898H178.684V52.9574H186.789V56H174.994Z" fill="white"/>
<defs>
<linearGradient id="paint0_linear_1_67" x1="304" y1="4.5" x2="304" y2="330.5" gradientUnits="userSpaceOnUse">
<stop stop-color="#D9D9D9" stop-opacity="0"/>
<stop offset="1" stop-color="#A3A3A3" stop-opacity="0.29"/>
</linearGradient>
</defs>
</svg>
