<svg width="256" height="256" viewBox="0 0 256 256" fill="none" xmlns="http://www.w3.org/2000/svg">
<path d="M128 42L128.1 38.0012C128.033 37.9996 127.967 37.9996 127.9 38.0012L128 42ZM93 119.5H89C89 119.519 89.0001 119.538 89.0004 119.557L93 119.5ZM163 119.5L167 119.557C167 119.538 167 119.519 167 119.5L163 119.5ZM132 61.5C132 59.2909 130.209 57.5 128 57.5C125.791 57.5 124 59.2909 124 61.5H132ZM124 77C124 79.2091 125.791 81 128 81C130.209 81 132 79.2091 132 77H124ZM127.9 38.0012C120.544 38.1851 110.839 40.5955 102.9 47.3852C94.824 54.2927 89 65.3753 89 82H97C97 67.4247 102.009 58.674 108.1 53.4648C114.328 48.1379 122.122 46.1482 128.1 45.9988L127.9 38.0012ZM89 82C89 82.0609 89 82.1218 89 82.1825C89 82.2433 89 82.3039 89 82.3644C89 82.425 89 82.4854 89 82.5458C89 82.6061 89 82.6663 89 82.7265C89 82.7866 89 82.8467 89 82.9066C89 82.9666 89 83.0264 89 83.0862C89 83.1459 89 83.2056 89 83.2651C89 83.3247 89 83.3841 89 83.4435C89 83.5028 89 83.5621 89 83.6213C89 83.6804 89 83.7395 89 83.7985C89 83.8574 89 83.9163 89 83.9751C89 84.0338 89 84.0925 89 84.1511C89 84.2097 89 84.2681 89 84.3265C89 84.3849 89 84.4432 89 84.5014C89 84.5595 89 84.6176 89 84.6756C89 84.7336 89 84.7915 89 84.8493C89 84.9071 89 84.9648 89 85.0224C89 85.08 89 85.1375 89 85.1949C89 85.2523 89 85.3097 89 85.3669C89 85.4241 89 85.4812 89 85.5382C89 85.5953 89 85.6522 89 85.709C89 85.7659 89 85.8226 89 85.8792C89 85.9359 89 85.9924 89 86.0489C89 86.1053 89 86.1617 89 86.218C89 86.2742 89 86.3304 89 86.3864C89 86.4425 89 86.4985 89 86.5544C89 86.6102 89 86.666 89 86.7217C89 86.7774 89 86.833 89 86.8885C89 86.944 89 86.9994 89 87.0547C89 87.11 89 87.1652 89 87.2203C89 87.2755 89 87.3305 89 87.3854C89 87.4403 89 87.4952 89 87.5499C89 87.6047 89 87.6593 89 87.7139C89 87.7684 89 87.8229 89 87.8773C89 87.9316 89 87.9859 89 88.0401C89 88.0942 89 88.1483 89 88.2023C89 88.2563 89 88.3102 89 88.364C89 88.4178 89 88.4715 89 88.5252C89 88.5788 89 88.6323 89 88.6857C89 88.7392 89 88.7925 89 88.8457C89 88.899 89 88.9521 89 89.0052C89 89.0583 89 89.1112 89 89.1641C89 89.217 89 89.2698 89 89.3225C89 89.3751 89 89.4277 89 89.4802C89 89.5328 89 89.5852 89 89.6375C89 89.6898 89 89.742 89 89.7942C89 89.8463 89 89.8984 89 89.9503C89 90.0023 89 90.0541 89 90.1059C89 90.1577 89 90.2094 89 90.2609C89 90.3125 89 90.364 89 90.4154C89 90.4668 89 90.5182 89 90.5694C89 90.6206 89 90.6717 89 90.7228C89 90.7738 89 90.8248 89 90.8756C89 90.9265 89 90.9773 89 91.0279C89 91.0786 89 91.1292 89 91.1797C89 91.2302 89 91.2806 89 91.3309C89 91.3812 89 91.4315 89 91.4816C89 91.5317 89 91.5818 89 91.6317C89 91.6817 89 91.7316 89 91.7813C89 91.8311 89 91.8808 89 91.9304C89 91.98 89 92.0295 89 92.0789C89 92.1283 89 92.1777 89 92.2269C89 92.2762 89 92.3253 89 92.3744C89 92.4234 89 92.4724 89 92.5213C89 92.5702 89 92.619 89 92.6677C89 92.7164 89 92.765 89 92.8135C89 92.8621 89 92.9105 89 92.9589C89 93.0072 89 93.0555 89 93.1036C89 93.1518 89 93.1999 89 93.2479C89 93.2959 89 93.3438 89 93.3916C89 93.4395 89 93.4872 89 93.5348C89 93.5825 89 93.6301 89 93.6775C89 93.725 89 93.7724 89 93.8197C89 93.867 89 93.9142 89 93.9613C89 94.0084 89 94.0555 89 94.1024C89 94.1494 89 94.1962 89 94.243C89 94.2898 89 94.3365 89 94.3831C89 94.4297 89 94.4762 89 94.5226C89 94.569 89 94.6154 89 94.6616C89 94.7079 89 94.754 89 94.8001C89 94.8462 89 94.8922 89 94.9381C89 94.984 89 95.0298 89 95.0756C89 95.1213 89 95.167 89 95.2125C89 95.2581 89 95.3036 89 95.349C89 95.3944 89 95.4397 89 95.4849C89 95.5301 89 95.5753 89 95.6203C89 95.6654 89 95.7103 89 95.7552C89 95.8001 89 95.8449 89 95.8896C89 95.9343 89 95.9789 89 96.0235C89 96.068 89 96.1125 89 96.1569C89 96.2012 89 96.2455 89 96.2897C89 96.3339 89 96.378 89 96.4221C89 96.4661 89 96.5101 89 96.5539C89 96.5978 89 96.6416 89 96.6853C89 96.729 89 96.7726 89 96.8161C89 96.8597 89 96.9031 89 96.9465C89 96.9898 89 97.0331 89 97.0763C89 97.1195 89 97.1626 89 97.2056C89 97.2487 89 97.2916 89 97.3345C89 97.3773 89 97.4201 89 97.4628C89 97.5055 89 97.5481 89 97.5907C89 97.6332 89 97.6756 89 97.718C89 97.7604 89 97.8027 89 97.8449C89 97.8871 89 97.9292 89 97.9712C89 98.0132 89 98.0552 89 98.0971C89 98.1389 89 98.1807 89 98.2224C89 98.2641 89 98.3058 89 98.3473C89 98.3889 89 98.4303 89 98.4717C89 98.5131 89 98.5544 89 98.5956C89 98.6368 89 98.6779 89 98.719C89 98.76 89 98.801 89 98.8419C89 98.8828 89 98.9236 89 98.9643C89 99.0051 89 99.0457 89 99.0863C89 99.1269 89 99.1673 89 99.2077C89 99.2482 89 99.2885 89 99.3287C89 99.369 89 99.4091 89 99.4492C89 99.4893 89 99.5293 89 99.5692C89 99.6091 89 99.649 89 99.6888C89 99.7285 89 99.7682 89 99.8078C89 99.8474 89 99.8869 89 99.9264C89 99.9658 89 100.005 89 100.044C89 100.084 89 100.123 89 100.162C89 100.201 89 100.24 89 100.279C89 100.318 89 100.357 89 100.396C89 100.435 89 100.473 89 100.512C89 100.551 89 100.589 89 100.628C89 100.666 89 100.705 89 100.743C89 100.781 89 100.82 89 100.858C89 100.896 89 100.934 89 100.972C89 101.01 89 101.048 89 101.086C89 101.124 89 101.162 89 101.199C89 101.237 89 101.275 89 101.312C89 101.35 89 101.387 89 101.425C89 101.462 89 101.499 89 101.537C89 101.574 89 101.611 89 101.648C89 101.685 89 101.722 89 101.759C89 101.796 89 101.833 89 101.87C89 101.907 89 101.943 89 101.98C89 102.016 89 102.053 89 102.09C89 102.126 89 102.162 89 102.199C89 102.235 89 102.271 89 102.307C89 102.344 89 102.38 89 102.416C89 102.452 89 102.488 89 102.524C89 102.559 89 102.595 89 102.631C89 102.667 89 102.702 89 102.738C89 102.773 89 102.809 89 102.844C89 102.88 89 102.915 89 102.95C89 102.986 89 103.021 89 103.056C89 103.091 89 103.126 89 103.161C89 103.196 89 103.231 89 103.266C89 103.3 89 103.335 89 103.37C89 103.405 89 103.439 89 103.474C89 103.508 89 103.543 89 103.577C89 103.611 89 103.646 89 103.68C89 103.714 89 103.748 89 103.782C89 103.816 89 103.85 89 103.884C89 103.918 89 103.952 89 103.986C89 104.02 89 104.053 89 104.087C89 104.12 89 104.154 89 104.188C89 104.221 89 104.254 89 104.288C89 104.321 89 104.354 89 104.388C89 104.421 89 104.454 89 104.487C89 104.52 89 104.553 89 104.586C89 104.619 89 104.651 89 104.684C89 104.717 89 104.75 89 104.782C89 104.815 89 104.847 89 104.88C89 104.912 89 104.945 89 104.977C89 105.009 89 105.042 89 105.074C89 105.106 89 105.138 89 105.17C89 105.202 89 105.234 89 105.266C89 105.298 89 105.33 89 105.361C89 105.393 89 105.425 89 105.456C89 105.488 89 105.52 89 105.551C89 105.582 89 105.614 89 105.645C89 105.677 89 105.708 89 105.739C89 105.77 89 105.801 89 105.832C89 105.863 89 105.894 89 105.925C89 105.956 89 105.987 89 106.018C89 106.048 89 106.079 89 106.11C89 106.14 89 106.171 89 106.201C89 106.232 89 106.262 89 106.293C89 106.323 89 106.353 89 106.383C89 106.414 89 106.444 89 106.474C89 106.504 89 106.534 89 106.564C89 106.594 89 106.623 89 106.653C89 106.683 89 106.713 89 106.742C89 106.772 89 106.802 89 106.831C89 106.861 89 106.89 89 106.919C89 106.949 89 106.978 89 107.007C89 107.037 89 107.066 89 107.095C89 107.124 89 107.153 89 107.182C89 107.211 89 107.24 89 107.269C89 107.297 89 107.326 89 107.355C89 107.384 89 107.412 89 107.441C89 107.469 89 107.498 89 107.526C89 107.555 89 107.583 89 107.611C89 107.639 89 107.668 89 107.696C89 107.724 89 107.752 89 107.78C89 107.808 89 107.836 89 107.864C89 107.892 89 107.92 89 107.947C89 107.975 89 108.003 89 108.03C89 108.058 89 108.086 89 108.113C89 108.141 89 108.168 89 108.195C89 108.223 89 108.25 89 108.277C89 108.304 89 108.332 89 108.359C89 108.386 89 108.413 89 108.44C89 108.467 89 108.494 89 108.52C89 108.547 89 108.574 89 108.601C89 108.627 89 108.654 89 108.681C89 108.707 89 108.734 89 108.76C89 108.787 89 108.813 89 108.839C89 108.866 89 108.892 89 108.918C89 108.944 89 108.97 89 108.996C89 109.022 89 109.048 89 109.074C89 109.1 89 109.126 89 109.152C89 109.178 89 109.203 89 109.229C89 109.255 89 109.28 89 109.306C89 109.331 89 109.357 89 109.382C89 109.408 89 109.433 89 109.458C89 109.483 89 109.509 89 109.534C89 109.559 89 109.584 89 109.609C89 109.634 89 109.659 89 109.684C89 109.709 89 109.734 89 109.759C89 109.783 89 109.808 89 109.833C89 109.857 89 109.882 89 109.906C89 109.931 89 109.955 89 109.98C89 110.004 89 110.029 89 110.053C89 110.077 89 110.101 89 110.126C89 110.15 89 110.174 89 110.198C89 110.222 89 110.246 89 110.27C89 110.294 89 110.317 89 110.341C89 110.365 89 110.389 89 110.412C89 110.436 89 110.46 89 110.483C89 110.507 89 110.53 89 110.554C89 110.577 89 110.6 89 110.624C89 110.647 89 110.67 89 110.693C89 110.717 89 110.74 89 110.763C89 110.786 89 110.809 89 110.832C89 110.855 89 110.878 89 110.9C89 110.923 89 110.946 89 110.969C89 110.991 89 111.014 89 111.037C89 111.059 89 111.082 89 111.104C89 111.127 89 111.149 89 111.171C89 111.194 89 111.216 89 111.238C89 111.26 89 111.282 89 111.305C89 111.327 89 111.349 89 111.371C89 111.393 89 111.415 89 111.436C89 111.458 89 111.48 89 111.502C89 111.524 89 111.545 89 111.567C89 111.588 89 111.61 89 111.632C89 111.653 89 111.675 89 111.696C89 111.717 89 111.739 89 111.76C89 111.781 89 111.802 89 111.824C89 111.845 89 111.866 89 111.887C89 111.908 89 111.929 89 111.95C89 111.971 89 111.992 89 112.013C89 112.033 89 112.054 89 112.075C89 112.095 89 112.116 89 112.137C89 112.157 89 112.178 89 112.198C89 112.219 89 112.239 89 112.26C89 112.28 89 112.3 89 112.32C89 112.341 89 112.361 89 112.381C89 112.401 89 112.421 89 112.441C89 112.461 89 112.481 89 112.501C89 112.521 89 112.541 89 112.561C89 112.581 89 112.6 89 112.62C89 112.64 89 112.659 89 112.679C89 112.698 89 112.718 89 112.737C89 112.757 89 112.776 89 112.796C89 112.815 89 112.834 89 112.854C89 112.873 89 112.892 89 112.911C89 112.93 89 112.949 89 112.968C89 112.987 89 113.006 89 113.025C89 113.044 89 113.063 89 113.082C89 113.101 89 113.119 89 113.138C89 113.157 89 113.176 89 113.194C89 113.213 89 113.231 89 113.25C89 113.268 89 113.287 89 113.305C89 113.323 89 113.342 89 113.36C89 113.378 89 113.396 89 113.415C89 113.433 89 113.451 89 113.469C89 113.487 89 113.505 89 113.523C89 113.541 89 113.559 89 113.577C89 113.594 89 113.612 89 113.63C89 113.648 89 113.665 89 113.683C89 113.701 89 113.718 89 113.736C89 113.753 89 113.771 89 113.788C89 113.806 89 113.823 89 113.84C89 113.858 89 113.875 89 113.892C89 113.909 89 113.927 89 113.944C89 113.961 89 113.978 89 113.995C89 114.012 89 114.029 89 114.046C89 114.063 89 114.079 89 114.096C89 114.113 89 114.13 89 114.147C89 114.163 89 114.18 89 114.196C89 114.213 89 114.23 89 114.246C89 114.263 89 114.279 89 114.295C89 114.312 89 114.328 89 114.345C89 114.361 89 114.377 89 114.393C89 114.409 89 114.426 89 114.442C89 114.458 89 114.474 89 114.49C89 114.506 89 114.522 89 114.538C89 114.554 89 114.569 89 114.585C89 114.601 89 114.617 89 114.632C89 114.648 89 114.664 89 114.679C89 114.695 89 114.711 89 114.726C89 114.742 89 114.757 89 114.772C89 114.788 89 114.803 89 114.818C89 114.834 89 114.849 89 114.864C89 114.879 89 114.895 89 114.91C89 114.925 89 114.94 89 114.955C89 114.97 89 114.985 89 115C89 115.015 89 115.03 89 115.044C89 115.059 89 115.074 89 115.089C89 115.103 89 115.118 89 115.133C89 115.147 89 115.162 89 115.176C89 115.191 89 115.205 89 115.22C89 115.234 89 115.249 89 115.263C89 115.277 89 115.292 89 115.306C89 115.32 89 115.334 89 115.349C89 115.363 89 115.377 89 115.391C89 115.405 89 115.419 89 115.433C89 115.447 89 115.461 89 115.475C89 115.489 89 115.503 89 115.516C89 115.53 89 115.544 89 115.558C89 115.571 89 115.585 89 115.598C89 115.612 89 115.626 89 115.639C89 115.653 89 115.666 89 115.68C89 115.693 89 115.706 89 115.72C89 115.733 89 115.746 89 115.76C89 115.773 89 115.786 89 115.799C89 115.812 89 115.825 89 115.838C89 115.852 89 115.865 89 115.878C89 115.89 89 115.903 89 115.916C89 115.929 89 115.942 89 115.955C89 115.968 89 115.98 89 115.993C89 116.006 89 116.018 89 116.031C89 116.044 89 116.056 89 116.069C89 116.081 89 116.094 89 116.106C89 116.119 89 116.131 89 116.143C89 116.156 89 116.168 89 116.18C89 116.193 89 116.205 89 116.217C89 116.229 89 116.241 89 116.253C89 116.266 89 116.278 89 116.29C89 116.302 89 116.314 89 116.325C89 116.337 89 116.349 89 116.361C89 116.373 89 116.385 89 116.397C89 116.408 89 116.42 89 116.432C89 116.443 89 116.455 89 116.467C89 116.478 89 116.49 89 116.501C89 116.513 89 116.524 89 116.536C89 116.547 89 116.558 89 116.57C89 116.581 89 116.592 89 116.604C89 116.615 89 116.626 89 116.637C89 116.648 89 116.66 89 116.671C89 116.682 89 116.693 89 116.704C89 116.715 89 116.726 89 116.737C89 116.748 89 116.758 89 116.769C89 116.78 89 116.791 89 116.802C89 116.812 89 116.823 89 116.834C89 116.845 89 116.855 89 116.866C89 116.876 89 116.887 89 116.898C89 116.908 89 116.919 89 116.929C89 116.939 89 116.95 89 116.96C89 116.971 89 116.981 89 116.991C89 117.001 89 117.012 89 117.022C89 117.032 89 117.042 89 117.052C89 117.063 89 117.073 89 117.083C89 117.093 89 117.103 89 117.113C89 117.123 89 117.133 89 117.142C89 117.152 89 117.162 89 117.172C89 117.182 89 117.192 89 117.201C89 117.211 89 117.221 89 117.231C89 117.24 89 117.25 89 117.259C89 117.269 89 117.279 89 117.288C89 117.298 89 117.307 89 117.317C89 117.326 89 117.335 89 117.345C89 117.354 89 117.363 89 117.373C89 117.382 89 117.391 89 117.4C89 117.41 89 117.419 89 117.428C89 117.437 89 117.446 89 117.455C89 117.464 89 117.473 89 117.482C89 117.491 89 117.5 89 117.509C89 117.518 89 117.527 89 117.536C89 117.545 89 117.554 89 117.562C89 117.571 89 117.58 89 117.589C89 117.597 89 117.606 89 117.615C89 117.623 89 117.632 89 117.64C89 117.649 89 117.658 89 117.666C89 117.674 89 117.683 89 117.691C89 117.7 89 117.708 89 117.717C89 117.725 89 117.733 89 117.741C89 117.75 89 117.758 89 117.766C89 117.774 89 117.783 89 117.791C89 117.799 89 117.807 89 117.815C89 117.823 89 117.831 89 117.839C89 117.847 89 117.855 89 117.863C89 117.871 89 117.879 89 117.887C89 117.895 89 117.903 89 117.91C89 117.918 89 117.926 89 117.934C89 117.941 89 117.949 89 117.957C89 117.964 89 117.972 89 117.98C89 117.987 89 117.995 89 118.002C89 118.01 89 118.017 89 118.025C89 118.032 89 118.04 89 118.047C89 118.055 89 118.062 89 118.069C89 118.077 89 118.084 89 118.091C89 118.098 89 118.106 89 118.113C89 118.12 89 118.127 89 118.134C89 118.142 89 118.149 89 118.156C89 118.163 89 118.17 89 118.177C89 118.184 89 118.191 89 118.198C89 118.205 89 118.212 89 118.219C89 118.225 89 118.232 89 118.239C89 118.246 89 118.253 89 118.26C89 118.266 89 118.273 89 118.28C89 118.286 89 118.293 89 118.3C89 118.306 89 118.313 89 118.32C89 118.326 89 118.333 89 118.339C89 118.346 89 118.352 89 118.359C89 118.365 89 118.372 89 118.378C89 118.384 89 118.391 89 118.397C89 118.403 89 118.41 89 118.416C89 118.422 89 118.428 89 118.435C89 118.441 89 118.447 89 118.453C89 118.459 89 118.466 89 118.472C89 118.478 89 118.484 89 118.49C89 118.496 89 118.502 89 118.508C89 118.514 89 118.52 89 118.526C89 118.532 89 118.538 89 118.543C89 118.549 89 118.555 89 118.561C89 118.567 89 118.573 89 118.578C89 118.584 89 118.59 89 118.595C89 118.601 89 118.607 89 118.612C89 118.618 89 118.624 89 118.629C89 118.635 89 118.64 89 118.646C89 118.652 89 118.657 89 118.663C89 118.668 89 118.673 89 118.679C89 118.684 89 118.69 89 118.695C89 118.7 89 118.706 89 118.711C89 118.716 89 118.722 89 118.727C89 118.732 89 118.737 89 118.743C89 118.748 89 118.753 89 118.758C89 118.763 89 118.768 89 118.773C89 118.779 89 118.784 89 118.789C89 118.794 89 118.799 89 118.804C89 118.809 89 118.814 89 118.819C89 118.824 89 118.829 89 118.833C89 118.838 89 118.843 89 118.848C89 118.853 89 118.858 89 118.862C89 118.867 89 118.872 89 118.877C89 118.881 89 118.886 89 118.891C89 118.896 89 118.9 89 118.905C89 118.909 89 118.914 89 118.919C89 118.923 89 118.928 89 118.932C89 118.937 89 118.941 89 118.946C89 118.95 89 118.955 89 118.959C89 118.964 89 118.968 89 118.973C89 118.977 89 118.981 89 118.986C89 118.99 89 118.994 89 118.999C89 119.003 89 119.007 89 119.011C89 119.016 89 119.02 89 119.024C89 119.028 89 119.033 89 119.037C89 119.041 89 119.045 89 119.049C89 119.053 89 119.057 89 119.061C89 119.065 89 119.069 89 119.073C89 119.077 89 119.081 89 119.085C89 119.089 89 119.093 89 119.097C89 119.101 89 119.105 89 119.109C89 119.113 89 119.117 89 119.121C89 119.124 89 119.128 89 119.132C89 119.136 89 119.14 89 119.143C89 119.147 89 119.151 89 119.155C89 119.158 89 119.162 89 119.166C89 119.169 89 119.173 89 119.177C89 119.18 89 119.184 89 119.187C89 119.191 89 119.195 89 119.198C89 119.202 89 119.205 89 119.209C89 119.212 89 119.216 89 119.219C89 119.223 89 119.226 89 119.229C89 119.233 89 119.236 89 119.24C89 119.243 89 119.246 89 119.25C89 119.253 89 119.256 89 119.26C89 119.263 89 119.266 89 119.269C89 119.273 89 119.276 89 119.279C89 119.282 89 119.286 89 119.289C89 119.292 89 119.295 89 119.298C89 119.301 89 119.304 89 119.308C89 119.311 89 119.314 89 119.317C89 119.32 89 119.323 89 119.326C89 119.329 89 119.332 89 119.335C89 119.338 89 119.341 89 119.344C89 119.347 89 119.35 89 119.353C89 119.356 89 119.358 89 119.361C89 119.364 89 119.367 89 119.37C89 119.373 89 119.376 89 119.378C89 119.381 89 119.384 89 119.387C89 119.389 89 119.392 89 119.395C89 119.398 89 119.4 89 119.403C89 119.406 89 119.408 89 119.411C89 119.414 89 119.416 89 119.419C89 119.422 89 119.424 89 119.427C89 119.43 89 119.432 89 119.435C89 119.437 89 119.44 89 119.442C89 119.445 89 119.447 89 119.45C89 119.452 89 119.455 89 119.457C89 119.46 89 119.462 89 119.465C89 119.467 89 119.47 89 119.472C89 119.474 89 119.477 89 119.479C89 119.481 89 119.484 89 119.486C89 119.488 89 119.491 89 119.493C89 119.495 89 119.498 89 119.5H97C97 119.498 97 119.495 97 119.493C97 119.491 97 119.488 97 119.486C97 119.484 97 119.481 97 119.479C97 119.477 97 119.474 97 119.472C97 119.47 97 119.467 97 119.465C97 119.462 97 119.46 97 119.457C97 119.455 97 119.452 97 119.45C97 119.447 97 119.445 97 119.442C97 119.44 97 119.437 97 119.435C97 119.432 97 119.43 97 119.427C97 119.424 97 119.422 97 119.419C97 119.416 97 119.414 97 119.411C97 119.408 97 119.406 97 119.403C97 119.4 97 119.398 97 119.395C97 119.392 97 119.389 97 119.387C97 119.384 97 119.381 97 119.378C97 119.376 97 119.373 97 119.37C97 119.367 97 119.364 97 119.361C97 119.358 97 119.356 97 119.353C97 119.35 97 119.347 97 119.344C97 119.341 97 119.338 97 119.335C97 119.332 97 119.329 97 119.326C97 119.323 97 119.32 97 119.317C97 119.314 97 119.311 97 119.308C97 119.304 97 119.301 97 119.298C97 119.295 97 119.292 97 119.289C97 119.286 97 119.282 97 119.279C97 119.276 97 119.273 97 119.269C97 119.266 97 119.263 97 119.26C97 119.256 97 119.253 97 119.25C97 119.246 97 119.243 97 119.24C97 119.236 97 119.233 97 119.229C97 119.226 97 119.223 97 119.219C97 119.216 97 119.212 97 119.209C97 119.205 97 119.202 97 119.198C97 119.195 97 119.191 97 119.187C97 119.184 97 119.18 97 119.177C97 119.173 97 119.169 97 119.166C97 119.162 97 119.158 97 119.155C97 119.151 97 119.147 97 119.143C97 119.14 97 119.136 97 119.132C97 119.128 97 119.124 97 119.121C97 119.117 97 119.113 97 119.109C97 119.105 97 119.101 97 119.097C97 119.093 97 119.089 97 119.085C97 119.081 97 119.077 97 119.073C97 119.069 97 119.065 97 119.061C97 119.057 97 119.053 97 119.049C97 119.045 97 119.041 97 119.037C97 119.033 97 119.028 97 119.024C97 119.02 97 119.016 97 119.011C97 119.007 97 119.003 97 118.999C97 118.994 97 118.99 97 118.986C97 118.981 97 118.977 97 118.973C97 118.968 97 118.964 97 118.959C97 118.955 97 118.95 97 118.946C97 118.941 97 118.937 97 118.932C97 118.928 97 118.923 97 118.919C97 118.914 97 118.909 97 118.905C97 118.9 97 118.896 97 118.891C97 118.886 97 118.881 97 118.877C97 118.872 97 118.867 97 118.862C97 118.858 97 118.853 97 118.848C97 118.843 97 118.838 97 118.833C97 118.829 97 118.824 97 118.819C97 118.814 97 118.809 97 118.804C97 118.799 97 118.794 97 118.789C97 118.784 97 118.779 97 118.773C97 118.768 97 118.763 97 118.758C97 118.753 97 118.748 97 118.743C97 118.737 97 118.732 97 118.727C97 118.722 97 118.716 97 118.711C97 118.706 97 118.7 97 118.695C97 118.69 97 118.684 97 118.679C97 118.673 97 118.668 97 118.663C97 118.657 97 118.652 97 118.646C97 118.64 97 118.635 97 118.629C97 118.624 97 118.618 97 118.612C97 118.607 97 118.601 97 118.595C97 118.59 97 118.584 97 118.578C97 118.573 97 118.567 97 118.561C97 118.555 97 118.549 97 118.543C97 118.538 97 118.532 97 118.526C97 118.52 97 118.514 97 118.508C97 118.502 97 118.496 97 118.49C97 118.484 97 118.478 97 118.472C97 118.466 97 118.459 97 118.453C97 118.447 97 118.441 97 118.435C97 118.428 97 118.422 97 118.416C97 118.41 97 118.403 97 118.397C97 118.391 97 118.384 97 118.378C97 118.372 97 118.365 97 118.359C97 118.352 97 118.346 97 118.339C97 118.333 97 118.326 97 118.32C97 118.313 97 118.306 97 118.3C97 118.293 97 118.286 97 118.28C97 118.273 97 118.266 97 118.26C97 118.253 97 118.246 97 118.239C97 118.232 97 118.225 97 118.219C97 118.212 97 118.205 97 118.198C97 118.191 97 118.184 97 118.177C97 118.17 97 118.163 97 118.156C97 118.149 97 118.142 97 118.134C97 118.127 97 118.12 97 118.113C97 118.106 97 118.098 97 118.091C97 118.084 97 118.077 97 118.069C97 118.062 97 118.055 97 118.047C97 118.04 97 118.032 97 118.025C97 118.017 97 118.01 97 118.002C97 117.995 97 117.987 97 117.98C97 117.972 97 117.964 97 117.957C97 117.949 97 117.941 97 117.934C97 117.926 97 117.918 97 117.91C97 117.903 97 117.895 97 117.887C97 117.879 97 117.871 97 117.863C97 117.855 97 117.847 97 117.839C97 117.831 97 117.823 97 117.815C97 117.807 97 117.799 97 117.791C97 117.783 97 117.774 97 117.766C97 117.758 97 117.75 97 117.741C97 117.733 97 117.725 97 117.717C97 117.708 97 117.7 97 117.691C97 117.683 97 117.674 97 117.666C97 117.658 97 117.649 97 117.64C97 117.632 97 117.623 97 117.615C97 117.606 97 117.597 97 117.589C97 117.58 97 117.571 97 117.562C97 117.554 97 117.545 97 117.536C97 117.527 97 117.518 97 117.509C97 117.5 97 117.491 97 117.482C97 117.473 97 117.464 97 117.455C97 117.446 97 117.437 97 117.428C97 117.419 97 117.41 97 117.4C97 117.391 97 117.382 97 117.373C97 117.363 97 117.354 97 117.345C97 117.335 97 117.326 97 117.317C97 117.307 97 117.298 97 117.288C97 117.279 97 117.269 97 117.259C97 117.25 97 117.24 97 117.231C97 117.221 97 117.211 97 117.201C97 117.192 97 117.182 97 117.172C97 117.162 97 117.152 97 117.142C97 117.133 97 117.123 97 117.113C97 117.103 97 117.093 97 117.083C97 117.073 97 117.063 97 117.052C97 117.042 97 117.032 97 117.022C97 117.012 97 117.001 97 116.991C97 116.981 97 116.971 97 116.96C97 116.95 97 116.939 97 116.929C97 116.919 97 116.908 97 116.898C97 116.887 97 116.876 97 116.866C97 116.855 97 116.845 97 116.834C97 116.823 97 116.812 97 116.802C97 116.791 97 116.78 97 116.769C97 116.758 97 116.748 97 116.737C97 116.726 97 116.715 97 116.704C97 116.693 97 116.682 97 116.671C97 116.66 97 116.648 97 116.637C97 116.626 97 116.615 97 116.604C97 116.592 97 116.581 97 116.57C97 116.558 97 116.547 97 116.536C97 116.524 97 116.513 97 116.501C97 116.49 97 116.478 97 116.467C97 116.455 97 116.443 97 116.432C97 116.42 97 116.408 97 116.397C97 116.385 97 116.373 97 116.361C97 116.349 97 116.337 97 116.325C97 116.314 97 116.302 97 116.29C97 116.278 97 116.266 97 116.253C97 116.241 97 116.229 97 116.217C97 116.205 97 116.193 97 116.18C97 116.168 97 116.156 97 116.143C97 116.131 97 116.119 97 116.106C97 116.094 97 116.081 97 116.069C97 116.056 97 116.044 97 116.031C97 116.018 97 116.006 97 115.993C97 115.98 97 115.968 97 115.955C97 115.942 97 115.929 97 115.916C97 115.903 97 115.89 97 115.878C97 115.865 97 115.852 97 115.838C97 115.825 97 115.812 97 115.799C97 115.786 97 115.773 97 115.76C97 115.746 97 115.733 97 115.72C97 115.706 97 115.693 97 115.68C97 115.666 97 115.653 97 115.639C97 115.626 97 115.612 97 115.598C97 115.585 97 115.571 97 115.558C97 115.544 97 115.53 97 115.516C97 115.503 97 115.489 97 115.475C97 115.461 97 115.447 97 115.433C97 115.419 97 115.405 97 115.391C97 115.377 97 115.363 97 115.349C97 115.334 97 115.32 97 115.306C97 115.292 97 115.277 97 115.263C97 115.249 97 115.234 97 115.22C97 115.205 97 115.191 97 115.176C97 115.162 97 115.147 97 115.133C97 115.118 97 115.103 97 115.089C97 115.074 97 115.059 97 115.044C97 115.03 97 115.015 97 115C97 114.985 97 114.97 97 114.955C97 114.94 97 114.925 97 114.91C97 114.895 97 114.879 97 114.864C97 114.849 97 114.834 97 114.818C97 114.803 97 114.788 97 114.772C97 114.757 97 114.742 97 114.726C97 114.711 97 114.695 97 114.679C97 114.664 97 114.648 97 114.632C97 114.617 97 114.601 97 114.585C97 114.569 97 114.554 97 114.538C97 114.522 97 114.506 97 114.49C97 114.474 97 114.458 97 114.442C97 114.426 97 114.409 97 114.393C97 114.377 97 114.361 97 114.345C97 114.328 97 114.312 97 114.295C97 114.279 97 114.263 97 114.246C97 114.23 97 114.213 97 114.196C97 114.18 97 114.163 97 114.147C97 114.13 97 114.113 97 114.096C97 114.079 97 114.063 97 114.046C97 114.029 97 114.012 97 113.995C97 113.978 97 113.961 97 113.944C97 113.927 97 113.909 97 113.892C97 113.875 97 113.858 97 113.84C97 113.823 97 113.806 97 113.788C97 113.771 97 113.753 97 113.736C97 113.718 97 113.701 97 113.683C97 113.665 97 113.648 97 113.63C97 113.612 97 113.594 97 113.577C97 113.559 97 113.541 97 113.523C97 113.505 97 113.487 97 113.469C97 113.451 97 113.433 97 113.415C97 113.396 97 113.378 97 113.36C97 113.342 97 113.323 97 113.305C97 113.287 97 113.268 97 113.25C97 113.231 97 113.213 97 113.194C97 113.176 97 113.157 97 113.138C97 113.119 97 113.101 97 113.082C97 113.063 97 113.044 97 113.025C97 113.006 97 112.987 97 112.968C97 112.949 97 112.93 97 112.911C97 112.892 97 112.873 97 112.854C97 112.834 97 112.815 97 112.796C97 112.776 97 112.757 97 112.737C97 112.718 97 112.698 97 112.679C97 112.659 97 112.64 97 112.62C97 112.6 97 112.581 97 112.561C97 112.541 97 112.521 97 112.501C97 112.481 97 112.461 97 112.441C97 112.421 97 112.401 97 112.381C97 112.361 97 112.341 97 112.32C97 112.3 97 112.28 97 112.26C97 112.239 97 112.219 97 112.198C97 112.178 97 112.157 97 112.137C97 112.116 97 112.095 97 112.075C97 112.054 97 112.033 97 112.013C97 111.992 97 111.971 97 111.95C97 111.929 97 111.908 97 111.887C97 111.866 97 111.845 97 111.824C97 111.802 97 111.781 97 111.76C97 111.739 97 111.717 97 111.696C97 111.675 97 111.653 97 111.632C97 111.61 97 111.588 97 111.567C97 111.545 97 111.524 97 111.502C97 111.48 97 111.458 97 111.436C97 111.415 97 111.393 97 111.371C97 111.349 97 111.327 97 111.305C97 111.282 97 111.26 97 111.238C97 111.216 97 111.194 97 111.171C97 111.149 97 111.127 97 111.104C97 111.082 97 111.059 97 111.037C97 111.014 97 110.991 97 110.969C97 110.946 97 110.923 97 110.9C97 110.878 97 110.855 97 110.832C97 110.809 97 110.786 97 110.763C97 110.74 97 110.717 97 110.693C97 110.67 97 110.647 97 110.624C97 110.6 97 110.577 97 110.554C97 110.53 97 110.507 97 110.483C97 110.46 97 110.436 97 110.412C97 110.389 97 110.365 97 110.341C97 110.317 97 110.294 97 110.27C97 110.246 97 110.222 97 110.198C97 110.174 97 110.15 97 110.126C97 110.101 97 110.077 97 110.053C97 110.029 97 110.004 97 109.98C97 109.955 97 109.931 97 109.906C97 109.882 97 109.857 97 109.833C97 109.808 97 109.783 97 109.759C97 109.734 97 109.709 97 109.684C97 109.659 97 109.634 97 109.609C97 109.584 97 109.559 97 109.534C97 109.509 97 109.483 97 109.458C97 109.433 97 109.408 97 109.382C97 109.357 97 109.331 97 109.306C97 109.28 97 109.255 97 109.229C97 109.203 97 109.178 97 109.152C97 109.126 97 109.1 97 109.074C97 109.048 97 109.022 97 108.996C97 108.97 97 108.944 97 108.918C97 108.892 97 108.866 97 108.839C97 108.813 97 108.787 97 108.76C97 108.734 97 108.707 97 108.681C97 108.654 97 108.627 97 108.601C97 108.574 97 108.547 97 108.52C97 108.494 97 108.467 97 108.44C97 108.413 97 108.386 97 108.359C97 108.332 97 108.304 97 108.277C97 108.25 97 108.223 97 108.195C97 108.168 97 108.141 97 108.113C97 108.086 97 108.058 97 108.03C97 108.003 97 107.975 97 107.947C97 107.92 97 107.892 97 107.864C97 107.836 97 107.808 97 107.78C97 107.752 97 107.724 97 107.696C97 107.668 97 107.639 97 107.611C97 107.583 97 107.555 97 107.526C97 107.498 97 107.469 97 107.441C97 107.412 97 107.384 97 107.355C97 107.326 97 107.297 97 107.269C97 107.24 97 107.211 97 107.182C97 107.153 97 107.124 97 107.095C97 107.066 97 107.037 97 107.007C97 106.978 97 106.949 97 106.919C97 106.89 97 106.861 97 106.831C97 106.802 97 106.772 97 106.742C97 106.713 97 106.683 97 106.653C97 106.623 97 106.594 97 106.564C97 106.534 97 106.504 97 106.474C97 106.444 97 106.414 97 106.383C97 106.353 97 106.323 97 106.293C97 106.262 97 106.232 97 106.201C97 106.171 97 106.14 97 106.11C97 106.079 97 106.048 97 106.018C97 105.987 97 105.956 97 105.925C97 105.894 97 105.863 97 105.832C97 105.801 97 105.77 97 105.739C97 105.708 97 105.677 97 105.645C97 105.614 97 105.582 97 105.551C97 105.52 97 105.488 97 105.456C97 105.425 97 105.393 97 105.361C97 105.33 97 105.298 97 105.266C97 105.234 97 105.202 97 105.17C97 105.138 97 105.106 97 105.074C97 105.042 97 105.009 97 104.977C97 104.945 97 104.912 97 104.88C97 104.847 97 104.815 97 104.782C97 104.75 97 104.717 97 104.684C97 104.651 97 104.619 97 104.586C97 104.553 97 104.52 97 104.487C97 104.454 97 104.421 97 104.388C97 104.354 97 104.321 97 104.288C97 104.254 97 104.221 97 104.188C97 104.154 97 104.12 97 104.087C97 104.053 97 104.02 97 103.986C97 103.952 97 103.918 97 103.884C97 103.85 97 103.816 97 103.782C97 103.748 97 103.714 97 103.68C97 103.646 97 103.611 97 103.577C97 103.543 97 103.508 97 103.474C97 103.439 97 103.405 97 103.37C97 103.335 97 103.3 97 103.266C97 103.231 97 103.196 97 103.161C97 103.126 97 103.091 97 103.056C97 103.021 97 102.986 97 102.95C97 102.915 97 102.88 97 102.844C97 102.809 97 102.773 97 102.738C97 102.702 97 102.667 97 102.631C97 102.595 97 102.559 97 102.524C97 102.488 97 102.452 97 102.416C97 102.38 97 102.344 97 102.307C97 102.271 97 102.235 97 102.199C97 102.162 97 102.126 97 102.09C97 102.053 97 102.016 97 101.98C97 101.943 97 101.907 97 101.87C97 101.833 97 101.796 97 101.759C97 101.722 97 101.685 97 101.648C97 101.611 97 101.574 97 101.537C97 101.499 97 101.462 97 101.425C97 101.387 97 101.35 97 101.312C97 101.275 97 101.237 97 101.199C97 101.162 97 101.124 97 101.086C97 101.048 97 101.01 97 100.972C97 100.934 97 100.896 97 100.858C97 100.82 97 100.781 97 100.743C97 100.705 97 100.666 97 100.628C97 100.589 97 100.551 97 100.512C97 100.473 97 100.435 97 100.396C97 100.357 97 100.318 97 100.279C97 100.24 97 100.201 97 100.162C97 100.123 97 100.084 97 100.044C97 100.005 97 99.9658 97 99.9264C97 99.8869 97 99.8474 97 99.8078C97 99.7682 97 99.7285 97 99.6888C97 99.649 97 99.6091 97 99.5692C97 99.5293 97 99.4893 97 99.4492C97 99.4091 97 99.369 97 99.3287C97 99.2885 97 99.2482 97 99.2077C97 99.1673 97 99.1269 97 99.0863C97 99.0457 97 99.0051 97 98.9643C97 98.9236 97 98.8828 97 98.8419C97 98.801 97 98.76 97 98.719C97 98.6779 97 98.6368 97 98.5956C97 98.5544 97 98.5131 97 98.4717C97 98.4303 97 98.3889 97 98.3473C97 98.3058 97 98.2641 97 98.2224C97 98.1807 97 98.1389 97 98.0971C97 98.0552 97 98.0132 97 97.9712C97 97.9292 97 97.8871 97 97.8449C97 97.8027 97 97.7604 97 97.718C97 97.6756 97 97.6332 97 97.5907C97 97.5481 97 97.5055 97 97.4628C97 97.4201 97 97.3773 97 97.3345C97 97.2916 97 97.2487 97 97.2056C97 97.1626 97 97.1195 97 97.0763C97 97.0331 97 96.9898 97 96.9465C97 96.9031 97 96.8597 97 96.8161C97 96.7726 97 96.729 97 96.6853C97 96.6416 97 96.5978 97 96.5539C97 96.5101 97 96.4661 97 96.4221C97 96.378 97 96.3339 97 96.2897C97 96.2455 97 96.2012 97 96.1569C97 96.1125 97 96.068 97 96.0235C97 95.9789 97 95.9343 97 95.8896C97 95.8449 97 95.8001 97 95.7552C97 95.7103 97 95.6654 97 95.6203C97 95.5753 97 95.5301 97 95.4849C97 95.4397 97 95.3944 97 95.349C97 95.3036 97 95.2581 97 95.2125C97 95.167 97 95.1213 97 95.0756C97 95.0298 97 94.984 97 94.9381C97 94.8922 97 94.8462 97 94.8001C97 94.754 97 94.7079 97 94.6616C97 94.6154 97 94.569 97 94.5226C97 94.4762 97 94.4297 97 94.3831C97 94.3365 97 94.2898 97 94.243C97 94.1962 97 94.1494 97 94.1024C97 94.0555 97 94.0084 97 93.9613C97 93.9142 97 93.867 97 93.8197C97 93.7724 97 93.725 97 93.6775C97 93.6301 97 93.5825 97 93.5348C97 93.4872 97 93.4395 97 93.3916C97 93.3438 97 93.2959 97 93.2479C97 93.1999 97 93.1518 97 93.1036C97 93.0555 97 93.0072 97 92.9589C97 92.9105 97 92.8621 97 92.8135C97 92.765 97 92.7164 97 92.6677C97 92.619 97 92.5702 97 92.5213C97 92.4724 97 92.4234 97 92.3744C97 92.3253 97 92.2762 97 92.2269C97 92.1777 97 92.1283 97 92.0789C97 92.0295 97 91.98 97 91.9304C97 91.8808 97 91.8311 97 91.7813C97 91.7316 97 91.6817 97 91.6317C97 91.5818 97 91.5317 97 91.4816C97 91.4315 97 91.3812 97 91.3309C97 91.2806 97 91.2302 97 91.1797C97 91.1292 97 91.0786 97 91.0279C97 90.9773 97 90.9265 97 90.8756C97 90.8248 97 90.7738 97 90.7228C97 90.6717 97 90.6206 97 90.5694C97 90.5182 97 90.4668 97 90.4154C97 90.364 97 90.3125 97 90.2609C97 90.2094 97 90.1577 97 90.1059C97 90.0541 97 90.0023 97 89.9503C97 89.8984 97 89.8463 97 89.7942C97 89.742 97 89.6898 97 89.6375C97 89.5852 97 89.5328 97 89.4802C97 89.4277 97 89.3751 97 89.3225C97 89.2698 97 89.217 97 89.1641C97 89.1112 97 89.0583 97 89.0052C97 88.9521 97 88.899 97 88.8457C97 88.7925 97 88.7392 97 88.6857C97 88.6323 97 88.5788 97 88.5252C97 88.4715 97 88.4178 97 88.364C97 88.3102 97 88.2563 97 88.2023C97 88.1483 97 88.0942 97 88.0401C97 87.9859 97 87.9316 97 87.8773C97 87.8229 97 87.7684 97 87.7139C97 87.6593 97 87.6047 97 87.5499C97 87.4952 97 87.4403 97 87.3854C97 87.3305 97 87.2755 97 87.2203C97 87.1652 97 87.11 97 87.0547C97 86.9994 97 86.944 97 86.8885C97 86.833 97 86.7774 97 86.7217C97 86.666 97 86.6102 97 86.5544C97 86.4985 97 86.4425 97 86.3864C97 86.3304 97 86.2742 97 86.218C97 86.1617 97 86.1053 97 86.0489C97 85.9924 97 85.9359 97 85.8792C97 85.8226 97 85.7659 97 85.709C97 85.6522 97 85.5953 97 85.5382C97 85.4812 97 85.4241 97 85.3669C97 85.3097 97 85.2523 97 85.1949C97 85.1375 97 85.08 97 85.0224C97 84.9648 97 84.9071 97 84.8493C97 84.7915 97 84.7336 97 84.6756C97 84.6176 97 84.5595 97 84.5014C97 84.4432 97 84.3849 97 84.3265C97 84.2681 97 84.2097 97 84.1511C97 84.0925 97 84.0338 97 83.9751C97 83.9163 97 83.8574 97 83.7985C97 83.7395 97 83.6804 97 83.6213C97 83.5621 97 83.5028 97 83.4435C97 83.3841 97 83.3247 97 83.2651C97 83.2056 97 83.1459 97 83.0862C97 83.0264 97 82.9666 97 82.9066C97 82.8467 97 82.7866 97 82.7265C97 82.6663 97 82.6061 97 82.5458C97 82.4854 97 82.425 97 82.3644C97 82.3039 97 82.2433 97 82.1825C97 82.1218 97 82.0609 97 82H89ZM89.0004 119.557C89.0868 125.601 89.9484 135.3 95.367 143.568C100.99 152.147 111.054 158.5 128 158.5V150.5C113.346 150.5 105.993 145.186 102.058 139.182C97.9183 132.866 97.0799 125.065 96.9996 119.443L89.0004 119.557ZM127.9 45.9988C133.878 46.1482 141.672 48.1379 147.9 53.4648C153.991 58.674 159 67.4247 159 82H167C167 65.3753 161.176 54.2927 153.1 47.3852C145.161 40.5955 135.456 38.1851 128.1 38.0012L127.9 45.9988ZM159 82V119.5H167V82H159ZM159 119.443C158.92 125.065 158.082 132.866 153.942 139.182C150.007 145.186 142.654 150.5 128 150.5V158.5C144.946 158.5 155.01 152.147 160.633 143.568C166.052 135.3 166.913 125.601 167 119.557L159 119.443ZM124 61.5V77H132V61.5H124Z" fill="black"/>
<path d="M103.884 170.295L128.295 194.705L152.705 170.295" stroke="black" stroke-width="8" stroke-linecap="round" stroke-linejoin="round"/>
<path d="M103.884 190.411L128.295 214.821L152.705 190.411" stroke="black" stroke-width="8" stroke-linecap="round" stroke-linejoin="round"/>
</svg>
