<svg viewBox="0 0 388 114" fill="none" xmlns="http://www.w3.org/2000/svg">
<path d="M26.5 4H364V22.6667V70.5L339.5 94H31.8191H4V28L26.5 4Z" fill="url(#paint0_linear_3_130)" stroke="white" stroke-width="8" stroke-linejoin="round"/>
<path d="M121.392 57V39.5455H128.278C129.602 39.5455 130.73 39.7983 131.662 40.304C132.594 40.804 133.304 41.5 133.793 42.392C134.287 43.2784 134.534 44.3011 134.534 45.4602C134.534 46.6193 134.284 47.642 133.784 48.5284C133.284 49.4148 132.56 50.1051 131.611 50.5994C130.668 51.0937 129.526 51.3409 128.185 51.3409H123.795V48.3835H127.588C128.298 48.3835 128.884 48.2614 129.344 48.017C129.81 47.767 130.156 47.4233 130.384 46.9858C130.616 46.5426 130.733 46.0341 130.733 45.4602C130.733 44.8807 130.616 44.375 130.384 43.9432C130.156 43.5057 129.81 43.1676 129.344 42.929C128.878 42.6847 128.287 42.5625 127.571 42.5625H125.082V57H121.392ZM136.931 57V39.5455H143.817C145.136 39.5455 146.261 39.7812 147.192 40.2528C148.13 40.7187 148.843 41.3807 149.332 42.2386C149.826 43.0909 150.073 44.0937 150.073 45.2472C150.073 46.4062 149.823 47.4034 149.323 48.2386C148.823 49.0682 148.099 49.7045 147.15 50.1477C146.207 50.5909 145.065 50.8125 143.724 50.8125H139.113V47.8466H143.127C143.832 47.8466 144.417 47.75 144.883 47.5568C145.349 47.3636 145.695 47.0739 145.923 46.6875C146.156 46.3011 146.272 45.821 146.272 45.2472C146.272 44.6676 146.156 44.179 145.923 43.7812C145.695 43.3835 145.346 43.0824 144.874 42.8778C144.408 42.6676 143.82 42.5625 143.11 42.5625H140.621V57H136.931ZM146.357 49.0568L150.695 57H146.621L142.377 49.0568H146.357ZM168.721 48.2727C168.721 50.1761 168.36 51.7955 167.638 53.1307C166.923 54.4659 165.945 55.4858 164.707 56.1903C163.474 56.8892 162.087 57.2386 160.548 57.2386C158.996 57.2386 157.604 56.8864 156.371 56.1818C155.138 55.4773 154.164 54.4574 153.448 53.1222C152.732 51.7869 152.374 50.1705 152.374 48.2727C152.374 46.3693 152.732 44.75 153.448 43.4148C154.164 42.0795 155.138 41.0625 156.371 40.3636C157.604 39.6591 158.996 39.3068 160.548 39.3068C162.087 39.3068 163.474 39.6591 164.707 40.3636C165.945 41.0625 166.923 42.0795 167.638 43.4148C168.36 44.75 168.721 46.3693 168.721 48.2727ZM164.979 48.2727C164.979 47.0398 164.795 46 164.425 45.1534C164.062 44.3068 163.548 43.6648 162.883 43.2273C162.218 42.7898 161.44 42.571 160.548 42.571C159.656 42.571 158.877 42.7898 158.212 43.2273C157.548 43.6648 157.031 44.3068 156.661 45.1534C156.298 46 156.116 47.0398 156.116 48.2727C156.116 49.5057 156.298 50.5455 156.661 51.392C157.031 52.2386 157.548 52.8807 158.212 53.3182C158.877 53.7557 159.656 53.9744 160.548 53.9744C161.44 53.9744 162.218 53.7557 162.883 53.3182C163.548 52.8807 164.062 52.2386 164.425 51.392C164.795 50.5455 164.979 49.5057 164.979 48.2727ZM178.443 39.5455H182.091V51.7159C182.091 52.8409 181.838 53.8182 181.332 54.6477C180.832 55.4773 180.136 56.1165 179.244 56.5653C178.352 57.0142 177.315 57.2386 176.134 57.2386C175.082 57.2386 174.128 57.054 173.27 56.6847C172.418 56.3097 171.741 55.7415 171.241 54.9801C170.741 54.2131 170.494 53.25 170.5 52.0909H174.173C174.185 52.5511 174.278 52.946 174.455 53.2756C174.636 53.5994 174.884 53.8494 175.196 54.0256C175.514 54.196 175.889 54.2812 176.321 54.2812C176.776 54.2812 177.159 54.1847 177.472 53.9915C177.79 53.7926 178.031 53.5028 178.196 53.1222C178.361 52.7415 178.443 52.2727 178.443 51.7159V39.5455ZM185.142 57V39.5455H196.903V42.5881H188.832V46.7472H196.298V49.7898H188.832V53.9574H196.938V57H185.142ZM215.238 45.6562H211.505C211.437 45.1733 211.298 44.7443 211.087 44.3693C210.877 43.9886 210.607 43.6648 210.278 43.3977C209.948 43.1307 209.567 42.9261 209.136 42.7841C208.71 42.642 208.246 42.571 207.746 42.571C206.843 42.571 206.056 42.7955 205.386 43.2443C204.715 43.6875 204.195 44.3352 203.826 45.1875C203.457 46.0341 203.272 47.0625 203.272 48.2727C203.272 49.517 203.457 50.5625 203.826 51.4091C204.201 52.2557 204.724 52.8949 205.394 53.3267C206.065 53.7585 206.84 53.9744 207.721 53.9744C208.215 53.9744 208.673 53.9091 209.093 53.7784C209.519 53.6477 209.897 53.4574 210.227 53.2074C210.556 52.9517 210.829 52.642 211.045 52.2784C211.266 51.9148 211.42 51.5 211.505 51.0341L215.238 51.0511C215.141 51.8523 214.9 52.625 214.513 53.3693C214.133 54.108 213.619 54.7699 212.971 55.3551C212.329 55.9347 211.562 56.3949 210.67 56.7358C209.783 57.071 208.781 57.2386 207.661 57.2386C206.104 57.2386 204.712 56.8864 203.485 56.1818C202.263 55.4773 201.298 54.4574 200.587 53.1222C199.883 51.7869 199.531 50.1705 199.531 48.2727C199.531 46.3693 199.888 44.75 200.604 43.4148C201.32 42.0795 202.292 41.0625 203.519 40.3636C204.746 39.6591 206.127 39.3068 207.661 39.3068C208.673 39.3068 209.61 39.4489 210.474 39.733C211.343 40.017 212.113 40.4318 212.783 40.9773C213.454 41.517 213.999 42.179 214.42 42.9631C214.846 43.7472 215.119 44.6449 215.238 45.6562ZM217.219 42.5881V39.5455H231.555V42.5881H226.211V57H222.563V42.5881H217.219ZM243.384 44.5653C243.316 43.8778 243.023 43.3437 242.506 42.9631C241.989 42.5824 241.288 42.392 240.401 42.392C239.799 42.392 239.29 42.4773 238.876 42.6477C238.461 42.8125 238.143 43.0426 237.921 43.3381C237.705 43.6335 237.597 43.9688 237.597 44.3438C237.586 44.6562 237.651 44.929 237.793 45.1619C237.941 45.3949 238.143 45.5966 238.398 45.767C238.654 45.9318 238.95 46.0767 239.285 46.2017C239.62 46.321 239.978 46.4233 240.359 46.5085L241.927 46.8835C242.688 47.054 243.387 47.2812 244.023 47.5653C244.66 47.8494 245.211 48.1989 245.677 48.6136C246.143 49.0284 246.504 49.517 246.759 50.0795C247.021 50.642 247.154 51.2869 247.16 52.0142C247.154 53.0824 246.881 54.0085 246.342 54.7926C245.808 55.571 245.035 56.1761 244.023 56.608C243.018 57.0341 241.805 57.2472 240.384 57.2472C238.975 57.2472 237.748 57.0312 236.702 56.5994C235.663 56.1676 234.85 55.5284 234.265 54.6818C233.685 53.8295 233.381 52.7756 233.353 51.5199H236.924C236.964 52.1051 237.131 52.5937 237.427 52.9858C237.728 53.3722 238.129 53.6648 238.629 53.8636C239.134 54.0568 239.705 54.1534 240.342 54.1534C240.967 54.1534 241.509 54.0625 241.969 53.8807C242.435 53.6989 242.796 53.446 243.052 53.1222C243.308 52.7983 243.435 52.4261 243.435 52.0057C243.435 51.6136 243.319 51.2841 243.086 51.017C242.859 50.75 242.523 50.5227 242.08 50.3352C241.643 50.1477 241.106 49.9773 240.469 49.8239L238.569 49.3466C237.097 48.9886 235.935 48.429 235.083 47.6676C234.231 46.9062 233.808 45.8807 233.813 44.5909C233.808 43.5341 234.089 42.6108 234.657 41.821C235.231 41.0312 236.018 40.4148 237.018 39.9716C238.018 39.5284 239.154 39.3068 240.427 39.3068C241.722 39.3068 242.853 39.5284 243.819 39.9716C244.79 40.4148 245.546 41.0312 246.086 41.821C246.626 42.6108 246.904 43.5256 246.921 44.5653H243.384Z" fill="white"/>
<path d="M31.8192 94L48.5 110H384V44L364 22.6667" stroke="white" stroke-opacity="0.8" stroke-width="8" stroke-linejoin="round"/>
<defs>
<linearGradient id="paint0_linear_3_130" x1="184" y1="4" x2="184" y2="94" gradientUnits="userSpaceOnUse">
<stop stop-color="#D9D9D9" stop-opacity="0"/>
<stop offset="1" stop-color="#A3A3A3" stop-opacity="0.29"/>
</linearGradient>
</defs>
</svg>
