<svg viewBox="0 0 608 437" fill="none" xmlns="http://www.w3.org/2000/svg">
<path d="M244.5 45H367L387.5 24.5H510.5L541.5 55.5V72.5" stroke="white" stroke-opacity="0.8" stroke-width="8" stroke-linejoin="round"/>
<path d="M94.0053 43.0653C93.9371 42.3778 93.6445 41.8437 93.1275 41.4631C92.6104 41.0824 91.9087 40.892 91.0224 40.892C90.4201 40.892 89.9116 40.9773 89.4968 41.1477C89.082 41.3125 88.7638 41.5426 88.5423 41.8381C88.3263 42.1335 88.2184 42.4688 88.2184 42.8438C88.207 43.1562 88.2724 43.429 88.4144 43.6619C88.5621 43.8949 88.7638 44.0966 89.0195 44.267C89.2752 44.4318 89.5707 44.5767 89.9059 44.7017C90.2411 44.821 90.5991 44.9233 90.9798 45.0085L92.5479 45.3835C93.3093 45.554 94.0082 45.7812 94.6445 46.0653C95.2809 46.3494 95.832 46.6989 96.2979 47.1136C96.7638 47.5284 97.1246 48.017 97.3803 48.5795C97.6417 49.142 97.7752 49.7869 97.7809 50.5142C97.7752 51.5824 97.5025 52.5085 96.9627 53.2926C96.4286 54.071 95.6559 54.6761 94.6445 55.108C93.6388 55.5341 92.4258 55.7472 91.0053 55.7472C89.5962 55.7472 88.369 55.5312 87.3235 55.0994C86.2837 54.6676 85.4712 54.0284 84.886 53.1818C84.3065 52.3295 84.0025 51.2756 83.9741 50.0199H87.5451C87.5849 50.6051 87.7525 51.0937 88.0479 51.4858C88.3491 51.8722 88.7496 52.1648 89.2496 52.3636C89.7553 52.5568 90.3263 52.6534 90.9627 52.6534C91.5877 52.6534 92.1303 52.5625 92.5906 52.3807C93.0565 52.1989 93.4173 51.946 93.6729 51.6222C93.9286 51.2983 94.0565 50.9261 94.0565 50.5057C94.0565 50.1136 93.94 49.7841 93.707 49.517C93.4798 49.25 93.1445 49.0227 92.7013 48.8352C92.2638 48.6477 91.7269 48.4773 91.0906 48.3239L89.19 47.8466C87.7184 47.4886 86.5565 46.929 85.7042 46.1676C84.8519 45.4062 84.4286 44.3807 84.4343 43.0909C84.4286 42.0341 84.7099 41.1108 85.2781 40.321C85.8519 39.5312 86.6388 38.9148 87.6388 38.4716C88.6388 38.0284 89.7752 37.8068 91.0479 37.8068C92.3434 37.8068 93.4741 38.0284 94.44 38.4716C95.4116 38.9148 96.1673 39.5312 96.707 40.321C97.2468 41.1108 97.5252 42.0256 97.5423 43.0653H94.0053ZM100.263 55.5V38.0455H103.953V45.7415H104.184L110.465 38.0455H114.888L108.411 45.8608L114.965 55.5H110.55L105.769 48.3239L103.953 50.5398V55.5H100.263ZM120.5 38.0455V55.5H116.81V38.0455H120.5ZM123.537 55.5V38.0455H127.227V52.4574H134.71V55.5H123.537ZM137.154 55.5V38.0455H140.844V52.4574H148.327V55.5H137.154ZM160.24 43.0653C160.172 42.3778 159.879 41.8437 159.362 41.4631C158.845 41.0824 158.143 40.892 157.257 40.892C156.654 40.892 156.146 40.9773 155.731 41.1477C155.316 41.3125 154.998 41.5426 154.777 41.8381C154.561 42.1335 154.453 42.4688 154.453 42.8438C154.441 43.1562 154.507 43.429 154.649 43.6619C154.797 43.8949 154.998 44.0966 155.254 44.267C155.51 44.4318 155.805 44.5767 156.14 44.7017C156.475 44.821 156.833 44.9233 157.214 45.0085L158.782 45.3835C159.544 45.554 160.243 45.7812 160.879 46.0653C161.515 46.3494 162.066 46.6989 162.532 47.1136C162.998 47.5284 163.359 48.017 163.615 48.5795C163.876 49.142 164.01 49.7869 164.015 50.5142C164.01 51.5824 163.737 52.5085 163.197 53.2926C162.663 54.071 161.89 54.6761 160.879 55.108C159.873 55.5341 158.66 55.7472 157.24 55.7472C155.831 55.7472 154.603 55.5312 153.558 55.0994C152.518 54.6676 151.706 54.0284 151.12 53.1818C150.541 52.3295 150.237 51.2756 150.208 50.0199H153.779C153.819 50.6051 153.987 51.0937 154.282 51.4858C154.583 51.8722 154.984 52.1648 155.484 52.3636C155.99 52.5568 156.561 52.6534 157.197 52.6534C157.822 52.6534 158.365 52.5625 158.825 52.3807C159.291 52.1989 159.652 51.946 159.907 51.6222C160.163 51.2983 160.291 50.9261 160.291 50.5057C160.291 50.1136 160.174 49.7841 159.941 49.517C159.714 49.25 159.379 49.0227 158.936 48.8352C158.498 48.6477 157.961 48.4773 157.325 48.3239L155.424 47.8466C153.953 47.4886 152.791 46.929 151.939 46.1676C151.086 45.4062 150.663 44.3807 150.669 43.0909C150.663 42.0341 150.944 41.1108 151.512 40.321C152.086 39.5312 152.873 38.9148 153.873 38.4716C154.873 38.0284 156.01 37.8068 157.282 37.8068C158.578 37.8068 159.708 38.0284 160.674 38.4716C161.646 38.9148 162.402 39.5312 162.941 40.321C163.481 41.1108 163.76 42.0256 163.777 43.0653H160.24Z" fill="white"/>
<path d="M4 391V73.5V26L26 4H220.5L244.5 26V73.5H570L603.5 107.5V391L555 433H54.5L4 391Z" fill="url(#paint0_linear_1_63)" stroke="white" stroke-width="8" stroke-linejoin="round"/>
<path d="M80.2642 132.5V117.955H86.0028C87.1061 117.955 88.0459 118.165 88.8224 118.587C89.599 119.003 90.1908 119.583 90.598 120.327C91.0099 121.065 91.2159 121.918 91.2159 122.884C91.2159 123.849 91.0076 124.702 90.5909 125.44C90.1742 126.179 89.5705 126.754 88.7798 127.166C87.9938 127.578 87.0421 127.784 85.9247 127.784H82.267V125.32H85.4276C86.0194 125.32 86.5071 125.218 86.8906 125.014C87.2789 124.806 87.5677 124.519 87.7571 124.155C87.9512 123.786 88.0483 123.362 88.0483 122.884C88.0483 122.401 87.9512 121.979 87.7571 121.619C87.5677 121.255 87.2789 120.973 86.8906 120.774C86.5024 120.571 86.0099 120.469 85.4134 120.469H83.3395V132.5H80.2642ZM95.0245 136.591C94.641 136.591 94.2811 136.56 93.945 136.499C93.6135 136.442 93.3389 136.368 93.1211 136.278L93.8029 134.02C94.158 134.129 94.4776 134.188 94.7617 134.197C95.0505 134.207 95.2991 134.141 95.5075 133.999C95.7205 133.857 95.8933 133.615 96.0259 133.274L96.2035 132.812L92.2901 121.591H95.4719L97.7305 129.602H97.8441L100.124 121.591H103.327L99.087 133.679C98.8834 134.266 98.6064 134.777 98.256 135.213C97.9104 135.653 97.4724 135.992 96.9421 136.229C96.4118 136.47 95.7726 136.591 95.0245 136.591ZM110.678 121.591V123.864H104.108V121.591H110.678ZM105.6 118.977H108.625V129.148C108.625 129.427 108.668 129.645 108.753 129.801C108.838 129.953 108.957 130.059 109.108 130.121C109.265 130.182 109.444 130.213 109.648 130.213C109.79 130.213 109.932 130.201 110.074 130.178C110.216 130.149 110.325 130.128 110.401 130.114L110.877 132.365C110.725 132.412 110.512 132.467 110.238 132.528C109.963 132.595 109.629 132.635 109.236 132.649C108.507 132.678 107.868 132.58 107.319 132.358C106.774 132.135 106.35 131.79 106.047 131.321C105.744 130.852 105.595 130.26 105.6 129.545V118.977ZM115.909 126.193V132.5H112.883V117.955H115.824V123.516H115.951C116.198 122.872 116.595 122.367 117.145 122.003C117.694 121.634 118.383 121.449 119.211 121.449C119.969 121.449 120.629 121.615 121.193 121.946C121.761 122.273 122.201 122.744 122.514 123.359C122.831 123.97 122.987 124.702 122.983 125.554V132.5H119.957V126.094C119.962 125.421 119.791 124.898 119.446 124.524C119.105 124.15 118.627 123.963 118.011 123.963C117.599 123.963 117.234 124.051 116.917 124.226C116.605 124.401 116.359 124.657 116.179 124.993C116.003 125.324 115.913 125.724 115.909 126.193ZM130.293 132.713C129.189 132.713 128.235 132.479 127.43 132.01C126.63 131.536 126.012 130.878 125.577 130.036C125.141 129.188 124.923 128.205 124.923 127.088C124.923 125.961 125.141 124.976 125.577 124.134C126.012 123.286 126.63 122.628 127.43 122.159C128.235 121.686 129.189 121.449 130.293 121.449C131.396 121.449 132.348 121.686 133.148 122.159C133.953 122.628 134.573 123.286 135.009 124.134C135.444 124.976 135.662 125.961 135.662 127.088C135.662 128.205 135.444 129.188 135.009 130.036C134.573 130.878 133.953 131.536 133.148 132.01C132.348 132.479 131.396 132.713 130.293 132.713ZM130.307 130.369C130.809 130.369 131.228 130.227 131.564 129.943C131.9 129.654 132.153 129.261 132.324 128.764C132.499 128.267 132.587 127.701 132.587 127.067C132.587 126.432 132.499 125.866 132.324 125.369C132.153 124.872 131.9 124.479 131.564 124.19C131.228 123.902 130.809 123.757 130.307 123.757C129.8 123.757 129.374 123.902 129.028 124.19C128.688 124.479 128.429 124.872 128.254 125.369C128.084 125.866 127.999 126.432 127.999 127.067C127.999 127.701 128.084 128.267 128.254 128.764C128.429 129.261 128.688 129.654 129.028 129.943C129.374 130.227 129.8 130.369 130.307 130.369ZM140.655 126.193V132.5H137.629V121.591H140.513V123.516H140.641C140.882 122.881 141.287 122.379 141.855 122.01C142.423 121.636 143.112 121.449 143.922 121.449C144.679 121.449 145.34 121.615 145.903 121.946C146.467 122.277 146.905 122.751 147.217 123.366C147.53 123.977 147.686 124.706 147.686 125.554V132.5H144.661V126.094C144.665 125.426 144.495 124.905 144.149 124.531C143.804 124.152 143.328 123.963 142.722 123.963C142.314 123.963 141.955 124.051 141.642 124.226C141.334 124.401 141.093 124.657 140.918 124.993C140.747 125.324 140.66 125.724 140.655 126.193Z" fill="white"/>
<rect x="79" y="145.5" width="200" height="16" rx="7" fill="white" fill-opacity="0.5"/>
<rect x="79" y="145.5" width="181" height="16" rx="7" fill="white"/>
<path d="M80.2642 204.5V189.955H83.3395V195.956H89.5824V189.955H92.6506V204.5H89.5824V198.491H83.3395V204.5H80.2642ZM94.6321 192.49V189.955H106.578V192.49H102.125V204.5H99.0852V192.49H94.6321ZM108.545 189.955H112.338L116.344 199.727H116.514L120.52 189.955H124.312V204.5H121.33V195.033H121.209L117.445 204.429H115.413L111.649 194.997H111.528V204.5H108.545V189.955ZM126.846 204.5V189.955H129.922V201.964H136.157V204.5H126.846Z" fill="white"/>
<rect x="79" y="217.5" width="200" height="16" rx="7" fill="white" fill-opacity="0.5"/>
<rect x="79" y="217.5" width="157" height="16" rx="7" fill="white"/>
<path d="M93.098 267.047H89.9872C89.9304 266.644 89.8144 266.287 89.6392 265.974C89.464 265.657 89.2391 265.387 88.9645 265.165C88.6899 264.942 88.3726 264.772 88.0128 264.653C87.6577 264.535 87.2718 264.476 86.8551 264.476C86.1023 264.476 85.4465 264.663 84.8878 265.037C84.3291 265.406 83.8958 265.946 83.5881 266.656C83.2803 267.362 83.1264 268.219 83.1264 269.227C83.1264 270.264 83.2803 271.135 83.5881 271.841C83.9006 272.546 84.3362 273.079 84.8949 273.439C85.4536 273.799 86.0999 273.979 86.8338 273.979C87.2457 273.979 87.6269 273.924 87.9773 273.815C88.3324 273.706 88.6473 273.548 88.9219 273.339C89.1965 273.126 89.4238 272.868 89.6037 272.565C89.7884 272.262 89.9162 271.917 89.9872 271.528L93.098 271.543C93.0175 272.21 92.8163 272.854 92.4943 273.474C92.1771 274.09 91.7486 274.642 91.2088 275.129C90.6738 275.612 90.0346 275.996 89.2912 276.28C88.5526 276.559 87.7169 276.699 86.7841 276.699C85.4867 276.699 84.3267 276.405 83.304 275.818C82.286 275.231 81.4811 274.381 80.8892 273.268C80.3021 272.156 80.0085 270.809 80.0085 269.227C80.0085 267.641 80.3068 266.292 80.9034 265.179C81.5 264.066 82.3097 263.219 83.3324 262.636C84.3551 262.049 85.5057 261.756 86.7841 261.756C87.6269 261.756 88.4081 261.874 89.1278 262.111C89.8523 262.348 90.4938 262.693 91.0526 263.148C91.6113 263.598 92.0658 264.149 92.4162 264.803C92.7713 265.456 92.9986 266.204 93.098 267.047ZM103.194 266.138C103.137 265.565 102.893 265.12 102.462 264.803C102.031 264.485 101.447 264.327 100.708 264.327C100.206 264.327 99.7824 264.398 99.4368 264.54C99.0911 264.677 98.826 264.869 98.6413 265.115C98.4614 265.361 98.3714 265.641 98.3714 265.953C98.362 266.214 98.4164 266.441 98.5348 266.635C98.6579 266.829 98.826 266.997 99.0391 267.139C99.2521 267.277 99.4983 267.397 99.7777 267.501C100.057 267.601 100.355 267.686 100.673 267.757L101.979 268.07C102.614 268.212 103.196 268.401 103.727 268.638C104.257 268.875 104.716 269.166 105.104 269.511C105.493 269.857 105.793 270.264 106.006 270.733C106.224 271.202 106.335 271.739 106.34 272.345C106.335 273.235 106.108 274.007 105.658 274.661C105.213 275.309 104.569 275.813 103.727 276.173C102.888 276.528 101.878 276.706 100.694 276.706C99.5196 276.706 98.4969 276.526 97.6257 276.166C96.7592 275.806 96.0821 275.274 95.5945 274.568C95.1115 273.858 94.8582 272.98 94.8345 271.933H97.8104C97.8435 272.421 97.9832 272.828 98.2294 273.155C98.4804 273.477 98.8142 273.721 99.2308 273.886C99.6522 274.047 100.128 274.128 100.658 274.128C101.179 274.128 101.631 274.052 102.015 273.901C102.403 273.749 102.704 273.538 102.917 273.268C103.13 272.999 103.237 272.688 103.237 272.338C103.237 272.011 103.139 271.737 102.945 271.514C102.756 271.292 102.477 271.102 102.107 270.946C101.743 270.79 101.295 270.648 100.765 270.52L99.1811 270.122C97.9548 269.824 96.9865 269.357 96.2763 268.723C95.5661 268.089 95.2133 267.234 95.218 266.159C95.2133 265.278 95.4477 264.509 95.9212 263.851C96.3994 263.193 97.0552 262.679 97.8885 262.31C98.7218 261.94 99.6688 261.756 100.729 261.756C101.809 261.756 102.751 261.94 103.556 262.31C104.366 262.679 104.996 263.193 105.445 263.851C105.895 264.509 106.127 265.271 106.141 266.138H103.194ZM116.299 266.138C116.243 265.565 115.999 265.12 115.568 264.803C115.137 264.485 114.552 264.327 113.814 264.327C113.312 264.327 112.888 264.398 112.542 264.54C112.197 264.677 111.931 264.869 111.747 265.115C111.567 265.361 111.477 265.641 111.477 265.953C111.467 266.214 111.522 266.441 111.64 266.635C111.763 266.829 111.931 266.997 112.145 267.139C112.358 267.277 112.604 267.397 112.883 267.501C113.163 267.601 113.461 267.686 113.778 267.757L115.085 268.07C115.719 268.212 116.302 268.401 116.832 268.638C117.362 268.875 117.822 269.166 118.21 269.511C118.598 269.857 118.899 270.264 119.112 270.733C119.33 271.202 119.441 271.739 119.446 272.345C119.441 273.235 119.214 274.007 118.764 274.661C118.319 275.309 117.675 275.813 116.832 276.173C115.994 276.528 114.983 276.706 113.799 276.706C112.625 276.706 111.602 276.526 110.731 276.166C109.865 275.806 109.188 275.274 108.7 274.568C108.217 273.858 107.964 272.98 107.94 271.933H110.916C110.949 272.421 111.089 272.828 111.335 273.155C111.586 273.477 111.92 273.721 112.336 273.886C112.758 274.047 113.234 274.128 113.764 274.128C114.285 274.128 114.737 274.052 115.12 273.901C115.509 273.749 115.809 273.538 116.022 273.268C116.235 272.999 116.342 272.688 116.342 272.338C116.342 272.011 116.245 271.737 116.051 271.514C115.861 271.292 115.582 271.102 115.213 270.946C114.848 270.79 114.401 270.648 113.87 270.52L112.287 270.122C111.06 269.824 110.092 269.357 109.382 268.723C108.672 268.089 108.319 267.234 108.324 266.159C108.319 265.278 108.553 264.509 109.027 263.851C109.505 263.193 110.161 262.679 110.994 262.31C111.827 261.94 112.774 261.756 113.835 261.756C114.914 261.756 115.857 261.94 116.662 262.31C117.471 262.679 118.101 263.193 118.551 263.851C119.001 264.509 119.233 265.271 119.247 266.138H116.299Z" fill="white"/>
<rect x="79" y="289.5" width="200" height="16" rx="7" fill="white" fill-opacity="0.5"/>
<rect x="79" y="289.5" width="144" height="16" rx="7" fill="white"/>
<path d="M86.0881 333.955H89.1278V344.097C89.1278 345.034 88.9171 345.848 88.4957 346.54C88.0791 347.231 87.4991 347.764 86.7557 348.138C86.0123 348.512 85.1482 348.699 84.1634 348.699C83.2874 348.699 82.492 348.545 81.777 348.237C81.0668 347.925 80.5033 347.451 80.0866 346.817C79.67 346.178 79.464 345.375 79.4688 344.409H82.5298C82.5393 344.793 82.6174 345.122 82.7642 345.396C82.9157 345.666 83.1217 345.875 83.3821 346.021C83.6473 346.163 83.9598 346.234 84.3196 346.234C84.6984 346.234 85.018 346.154 85.2784 345.993C85.5436 345.827 85.7448 345.586 85.8821 345.268C86.0194 344.951 86.0881 344.561 86.0881 344.097V333.955ZM94.7244 348.706C94.0284 348.706 93.4081 348.585 92.8636 348.344C92.3191 348.098 91.8883 347.735 91.571 347.257C91.2585 346.774 91.1023 346.173 91.1023 345.453C91.1023 344.847 91.2135 344.338 91.4361 343.926C91.6586 343.514 91.9616 343.183 92.3452 342.932C92.7287 342.681 93.1643 342.491 93.652 342.364C94.1444 342.236 94.6605 342.146 95.2003 342.094C95.8348 342.027 96.3461 341.966 96.7344 341.909C97.1226 341.848 97.4044 341.758 97.5795 341.639C97.7547 341.521 97.8423 341.346 97.8423 341.114V341.071C97.8423 340.621 97.7003 340.273 97.4162 340.027C97.1368 339.781 96.7391 339.658 96.223 339.658C95.6785 339.658 95.2453 339.778 94.9233 340.02C94.6013 340.257 94.3883 340.555 94.2841 340.915L91.4858 340.688C91.6278 340.025 91.9072 339.452 92.3239 338.969C92.7405 338.481 93.2779 338.107 93.9361 337.847C94.599 337.581 95.366 337.449 96.2372 337.449C96.8433 337.449 97.4233 337.52 97.9773 337.662C98.536 337.804 99.0308 338.024 99.4616 338.322C99.8973 338.621 100.241 339.004 100.491 339.473C100.742 339.937 100.868 340.493 100.868 341.142V348.5H97.9986V346.987H97.9134C97.7382 347.328 97.5038 347.629 97.2102 347.889C96.9167 348.145 96.5639 348.346 96.152 348.493C95.7401 348.635 95.2642 348.706 94.7244 348.706ZM95.5909 346.618C96.036 346.618 96.429 346.53 96.7699 346.355C97.1108 346.175 97.3783 345.934 97.5724 345.631C97.7666 345.328 97.8636 344.984 97.8636 344.601V343.443C97.7689 343.505 97.6387 343.562 97.473 343.614C97.312 343.661 97.1297 343.706 96.9261 343.749C96.7225 343.786 96.5189 343.822 96.3153 343.855C96.1117 343.884 95.9271 343.91 95.7614 343.933C95.4063 343.985 95.0961 344.068 94.831 344.182C94.5658 344.295 94.3598 344.449 94.2131 344.643C94.0663 344.833 93.9929 345.07 93.9929 345.354C93.9929 345.766 94.142 346.08 94.4403 346.298C94.7434 346.511 95.1269 346.618 95.5909 346.618ZM112.995 337.591L109.181 348.5H105.772L101.958 337.591H105.154L107.42 345.396H107.533L109.792 337.591H112.995ZM117.361 348.706C116.665 348.706 116.045 348.585 115.5 348.344C114.956 348.098 114.525 347.735 114.208 347.257C113.895 346.774 113.739 346.173 113.739 345.453C113.739 344.847 113.85 344.338 114.073 343.926C114.295 343.514 114.598 343.183 114.982 342.932C115.365 342.681 115.801 342.491 116.289 342.364C116.781 342.236 117.297 342.146 117.837 342.094C118.471 342.027 118.983 341.966 119.371 341.909C119.759 341.848 120.041 341.758 120.216 341.639C120.391 341.521 120.479 341.346 120.479 341.114V341.071C120.479 340.621 120.337 340.273 120.053 340.027C119.774 339.781 119.376 339.658 118.86 339.658C118.315 339.658 117.882 339.778 117.56 340.02C117.238 340.257 117.025 340.555 116.921 340.915L114.123 340.688C114.265 340.025 114.544 339.452 114.961 338.969C115.377 338.481 115.915 338.107 116.573 337.847C117.236 337.581 118.003 337.449 118.874 337.449C119.48 337.449 120.06 337.52 120.614 337.662C121.173 337.804 121.667 338.024 122.098 338.322C122.534 338.621 122.877 339.004 123.128 339.473C123.379 339.937 123.505 340.493 123.505 341.142V348.5H120.635V346.987H120.55C120.375 347.328 120.141 347.629 119.847 347.889C119.553 348.145 119.201 348.346 118.789 348.493C118.377 348.635 117.901 348.706 117.361 348.706ZM118.228 346.618C118.673 346.618 119.066 346.53 119.407 346.355C119.748 346.175 120.015 345.934 120.209 345.631C120.403 345.328 120.5 344.984 120.5 344.601V343.443C120.406 343.505 120.275 343.562 120.11 343.614C119.949 343.661 119.766 343.706 119.563 343.749C119.359 343.786 119.156 343.822 118.952 343.855C118.748 343.884 118.564 343.91 118.398 343.933C118.043 343.985 117.733 344.068 117.468 344.182C117.203 344.295 116.997 344.449 116.85 344.643C116.703 344.833 116.63 345.07 116.63 345.354C116.63 345.766 116.779 346.08 117.077 346.298C117.38 346.511 117.764 346.618 118.228 346.618ZM133.799 338.138C133.743 337.565 133.499 337.12 133.068 336.803C132.637 336.485 132.052 336.327 131.314 336.327C130.812 336.327 130.388 336.398 130.042 336.54C129.697 336.677 129.431 336.869 129.247 337.115C129.067 337.361 128.977 337.641 128.977 337.953C128.967 338.214 129.022 338.441 129.14 338.635C129.263 338.829 129.431 338.997 129.645 339.139C129.858 339.277 130.104 339.397 130.383 339.501C130.663 339.601 130.961 339.686 131.278 339.757L132.585 340.07C133.219 340.212 133.802 340.401 134.332 340.638C134.862 340.875 135.322 341.166 135.71 341.511C136.098 341.857 136.399 342.264 136.612 342.733C136.83 343.202 136.941 343.739 136.946 344.345C136.941 345.235 136.714 346.007 136.264 346.661C135.819 347.309 135.175 347.813 134.332 348.173C133.494 348.528 132.483 348.706 131.299 348.706C130.125 348.706 129.102 348.526 128.231 348.166C127.365 347.806 126.688 347.274 126.2 346.568C125.717 345.858 125.464 344.98 125.44 343.933H128.416C128.449 344.421 128.589 344.828 128.835 345.155C129.086 345.477 129.42 345.721 129.836 345.886C130.258 346.047 130.734 346.128 131.264 346.128C131.785 346.128 132.237 346.052 132.62 345.901C133.009 345.749 133.309 345.538 133.522 345.268C133.735 344.999 133.842 344.688 133.842 344.338C133.842 344.011 133.745 343.737 133.551 343.514C133.361 343.292 133.082 343.102 132.713 342.946C132.348 342.79 131.901 342.648 131.37 342.52L129.787 342.122C128.56 341.824 127.592 341.357 126.882 340.723C126.172 340.089 125.819 339.234 125.824 338.159C125.819 337.278 126.053 336.509 126.527 335.851C127.005 335.193 127.661 334.679 128.494 334.31C129.327 333.94 130.274 333.756 131.335 333.756C132.414 333.756 133.357 333.94 134.162 334.31C134.971 334.679 135.601 335.193 136.051 335.851C136.501 336.509 136.733 337.271 136.747 338.138H133.799ZM143.886 348.713C142.769 348.713 141.808 348.476 141.003 348.003C140.203 347.525 139.587 346.862 139.156 346.014C138.73 345.167 138.517 344.191 138.517 343.088C138.517 341.971 138.732 340.991 139.163 340.148C139.599 339.3 140.217 338.64 141.017 338.166C141.817 337.688 142.769 337.449 143.872 337.449C144.824 337.449 145.657 337.622 146.372 337.967C147.087 338.313 147.653 338.798 148.07 339.423C148.486 340.048 148.716 340.782 148.759 341.625H145.903C145.823 341.08 145.61 340.643 145.264 340.311C144.923 339.975 144.476 339.807 143.922 339.807C143.453 339.807 143.044 339.935 142.693 340.19C142.348 340.441 142.078 340.808 141.884 341.291C141.689 341.774 141.592 342.359 141.592 343.045C141.592 343.741 141.687 344.333 141.876 344.821C142.071 345.309 142.343 345.68 142.693 345.936C143.044 346.192 143.453 346.32 143.922 346.32C144.268 346.32 144.578 346.249 144.852 346.107C145.132 345.964 145.361 345.759 145.541 345.489C145.726 345.214 145.847 344.885 145.903 344.501H148.759C148.711 345.335 148.484 346.069 148.077 346.703C147.674 347.333 147.118 347.825 146.408 348.18C145.697 348.536 144.857 348.713 143.886 348.713ZM150.696 348.5V337.591H153.629V339.494H153.743C153.941 338.817 154.275 338.306 154.744 337.96C155.213 337.61 155.752 337.435 156.363 337.435C156.515 337.435 156.678 337.444 156.853 337.463C157.029 337.482 157.182 337.508 157.315 337.541V340.226C157.173 340.183 156.976 340.145 156.725 340.112C156.475 340.079 156.245 340.062 156.037 340.062C155.592 340.062 155.194 340.16 154.843 340.354C154.498 340.543 154.223 340.808 154.02 341.149C153.821 341.49 153.721 341.883 153.721 342.328V348.5H150.696ZM158.879 348.5V337.591H161.905V348.5H158.879ZM160.399 336.185C159.949 336.185 159.563 336.036 159.241 335.737C158.924 335.434 158.766 335.072 158.766 334.651C158.766 334.234 158.924 333.876 159.241 333.578C159.563 333.275 159.949 333.124 160.399 333.124C160.849 333.124 161.232 333.275 161.55 333.578C161.872 333.876 162.033 334.234 162.033 334.651C162.033 335.072 161.872 335.434 161.55 335.737C161.232 336.036 160.849 336.185 160.399 336.185ZM164.328 352.591V337.591H167.311V339.423H167.446C167.579 339.13 167.771 338.831 168.022 338.528C168.277 338.221 168.609 337.965 169.016 337.761C169.428 337.553 169.939 337.449 170.55 337.449C171.346 337.449 172.079 337.657 172.752 338.074C173.424 338.486 173.962 339.108 174.364 339.942C174.766 340.77 174.968 341.81 174.968 343.06C174.968 344.277 174.771 345.304 174.378 346.142C173.99 346.975 173.46 347.607 172.787 348.038C172.12 348.464 171.372 348.678 170.543 348.678C169.956 348.678 169.456 348.58 169.044 348.386C168.637 348.192 168.303 347.948 168.043 347.655C167.783 347.357 167.584 347.056 167.446 346.753H167.354V352.591H164.328ZM167.29 343.045C167.29 343.694 167.38 344.26 167.56 344.743C167.74 345.226 168 345.602 168.341 345.872C168.682 346.137 169.096 346.27 169.584 346.27C170.077 346.27 170.493 346.135 170.834 345.865C171.175 345.59 171.433 345.212 171.608 344.729C171.788 344.241 171.878 343.68 171.878 343.045C171.878 342.416 171.791 341.862 171.615 341.384C171.44 340.905 171.182 340.531 170.841 340.261C170.5 339.991 170.081 339.857 169.584 339.857C169.092 339.857 168.675 339.987 168.334 340.247C167.998 340.508 167.74 340.877 167.56 341.355C167.38 341.833 167.29 342.397 167.29 343.045ZM182.787 337.591V339.864H176.218V337.591H182.787ZM177.709 334.977H180.735V345.148C180.735 345.427 180.777 345.645 180.863 345.801C180.948 345.953 181.066 346.059 181.218 346.121C181.374 346.182 181.554 346.213 181.757 346.213C181.9 346.213 182.042 346.201 182.184 346.178C182.326 346.149 182.435 346.128 182.51 346.114L182.986 348.365C182.835 348.412 182.622 348.467 182.347 348.528C182.072 348.595 181.739 348.635 181.346 348.649C180.616 348.678 179.977 348.58 179.428 348.358C178.883 348.135 178.46 347.79 178.157 347.321C177.854 346.852 177.704 346.26 177.709 345.545V334.977Z" fill="white"/>
<rect x="79" y="361.5" width="200" height="16" rx="7" fill="white" fill-opacity="0.5"/>
<rect x="79" y="361.5" width="121" height="16" rx="7" fill="white"/>
<path d="M335.42 132.5H330.264V117.955H335.463C336.926 117.955 338.186 118.246 339.241 118.828C340.297 119.406 341.109 120.237 341.678 121.321C342.25 122.405 342.537 123.703 342.537 125.213C342.537 126.728 342.25 128.03 341.678 129.119C341.109 130.208 340.293 131.044 339.227 131.626C338.167 132.209 336.898 132.5 335.42 132.5ZM333.339 129.865H335.293C336.202 129.865 336.966 129.704 337.587 129.382C338.212 129.055 338.68 128.551 338.993 127.869C339.31 127.183 339.469 126.297 339.469 125.213C339.469 124.138 339.31 123.26 338.993 122.578C338.68 121.896 338.214 121.394 337.594 121.072C336.973 120.75 336.209 120.589 335.3 120.589H333.339V129.865ZM347.869 132.706C347.173 132.706 346.553 132.585 346.008 132.344C345.464 132.098 345.033 131.735 344.716 131.257C344.403 130.774 344.247 130.173 344.247 129.453C344.247 128.847 344.358 128.338 344.581 127.926C344.803 127.514 345.106 127.183 345.49 126.932C345.873 126.681 346.309 126.491 346.797 126.364C347.289 126.236 347.805 126.146 348.345 126.094C348.979 126.027 349.491 125.966 349.879 125.909C350.267 125.848 350.549 125.758 350.724 125.639C350.899 125.521 350.987 125.346 350.987 125.114V125.071C350.987 124.621 350.845 124.273 350.561 124.027C350.281 123.781 349.884 123.658 349.368 123.658C348.823 123.658 348.39 123.778 348.068 124.02C347.746 124.257 347.533 124.555 347.429 124.915L344.63 124.688C344.772 124.025 345.052 123.452 345.468 122.969C345.885 122.481 346.422 122.107 347.081 121.847C347.743 121.581 348.511 121.449 349.382 121.449C349.988 121.449 350.568 121.52 351.122 121.662C351.681 121.804 352.175 122.024 352.606 122.322C353.042 122.621 353.385 123.004 353.636 123.473C353.887 123.937 354.012 124.493 354.012 125.142V132.5H351.143V130.987H351.058C350.883 131.328 350.648 131.629 350.355 131.889C350.061 132.145 349.708 132.346 349.297 132.493C348.885 132.635 348.409 132.706 347.869 132.706ZM348.735 130.618C349.181 130.618 349.574 130.53 349.914 130.355C350.255 130.175 350.523 129.934 350.717 129.631C350.911 129.328 351.008 128.984 351.008 128.601V127.443C350.913 127.505 350.783 127.562 350.618 127.614C350.457 127.661 350.274 127.706 350.071 127.749C349.867 127.786 349.663 127.822 349.46 127.855C349.256 127.884 349.072 127.91 348.906 127.933C348.551 127.985 348.241 128.068 347.975 128.182C347.71 128.295 347.504 128.449 347.358 128.643C347.211 128.833 347.137 129.07 347.137 129.354C347.137 129.766 347.287 130.08 347.585 130.298C347.888 130.511 348.271 130.618 348.735 130.618ZM356.36 132.5V121.591H359.293V123.494H359.407C359.605 122.817 359.939 122.306 360.408 121.96C360.877 121.61 361.417 121.435 362.027 121.435C362.179 121.435 362.342 121.444 362.517 121.463C362.693 121.482 362.846 121.508 362.979 121.541V124.226C362.837 124.183 362.641 124.145 362.39 124.112C362.139 124.079 361.909 124.062 361.701 124.062C361.256 124.062 360.858 124.16 360.507 124.354C360.162 124.543 359.887 124.808 359.684 125.149C359.485 125.49 359.385 125.883 359.385 126.328V132.5H356.36ZM370.893 121.591V123.864H364.323V121.591H370.893ZM365.815 118.977H368.84V129.148C368.84 129.427 368.883 129.645 368.968 129.801C369.053 129.953 369.172 130.059 369.323 130.121C369.479 130.182 369.659 130.213 369.863 130.213C370.005 130.213 370.147 130.201 370.289 130.178C370.431 130.149 370.54 130.128 370.616 130.114L371.092 132.365C370.94 132.412 370.727 132.467 370.452 132.528C370.178 132.595 369.844 132.635 369.451 132.649C368.722 132.678 368.083 132.58 367.533 132.358C366.989 132.135 366.565 131.79 366.262 131.321C365.959 130.852 365.81 130.26 365.815 129.545V118.977Z" fill="white"/>
<rect x="329" y="145.5" width="200" height="16" rx="7" fill="white" fill-opacity="0.5"/>
<rect x="329" y="145.5" width="157" height="16" rx="7" fill="white"/>
<path d="M336.088 189.955H339.128V200.097C339.128 201.034 338.917 201.848 338.496 202.54C338.079 203.231 337.499 203.764 336.756 204.138C336.012 204.512 335.148 204.699 334.163 204.699C333.287 204.699 332.492 204.545 331.777 204.237C331.067 203.925 330.503 203.451 330.087 202.817C329.67 202.178 329.464 201.375 329.469 200.409H332.53C332.539 200.793 332.617 201.122 332.764 201.396C332.916 201.666 333.122 201.875 333.382 202.021C333.647 202.163 333.96 202.234 334.32 202.234C334.698 202.234 335.018 202.154 335.278 201.993C335.544 201.827 335.745 201.586 335.882 201.268C336.019 200.951 336.088 200.561 336.088 200.097V189.955ZM344.724 204.706C344.028 204.706 343.408 204.585 342.864 204.344C342.319 204.098 341.888 203.735 341.571 203.257C341.259 202.774 341.102 202.173 341.102 201.453C341.102 200.847 341.214 200.338 341.436 199.926C341.659 199.514 341.962 199.183 342.345 198.932C342.729 198.681 343.164 198.491 343.652 198.364C344.144 198.236 344.661 198.146 345.2 198.094C345.835 198.027 346.346 197.966 346.734 197.909C347.123 197.848 347.404 197.758 347.58 197.639C347.755 197.521 347.842 197.346 347.842 197.114V197.071C347.842 196.621 347.7 196.273 347.416 196.027C347.137 195.781 346.739 195.658 346.223 195.658C345.679 195.658 345.245 195.778 344.923 196.02C344.601 196.257 344.388 196.555 344.284 196.915L341.486 196.688C341.628 196.025 341.907 195.452 342.324 194.969C342.741 194.481 343.278 194.107 343.936 193.847C344.599 193.581 345.366 193.449 346.237 193.449C346.843 193.449 347.423 193.52 347.977 193.662C348.536 193.804 349.031 194.024 349.462 194.322C349.897 194.621 350.241 195.004 350.491 195.473C350.742 195.937 350.868 196.493 350.868 197.142V204.5H347.999V202.987H347.913C347.738 203.328 347.504 203.629 347.21 203.889C346.917 204.145 346.564 204.346 346.152 204.493C345.74 204.635 345.264 204.706 344.724 204.706ZM345.591 202.618C346.036 202.618 346.429 202.53 346.77 202.355C347.111 202.175 347.378 201.934 347.572 201.631C347.767 201.328 347.864 200.984 347.864 200.601V199.443C347.769 199.505 347.639 199.562 347.473 199.614C347.312 199.661 347.13 199.706 346.926 199.749C346.723 199.786 346.519 199.822 346.315 199.855C346.112 199.884 345.927 199.91 345.761 199.933C345.406 199.985 345.096 200.068 344.831 200.182C344.566 200.295 344.36 200.449 344.213 200.643C344.066 200.833 343.993 201.07 343.993 201.354C343.993 201.766 344.142 202.08 344.44 202.298C344.743 202.511 345.127 202.618 345.591 202.618ZM362.995 193.591L359.181 204.5H355.772L351.958 193.591H355.154L357.42 201.396H357.533L359.792 193.591H362.995ZM367.361 204.706C366.665 204.706 366.045 204.585 365.5 204.344C364.956 204.098 364.525 203.735 364.208 203.257C363.895 202.774 363.739 202.173 363.739 201.453C363.739 200.847 363.85 200.338 364.073 199.926C364.295 199.514 364.598 199.183 364.982 198.932C365.365 198.681 365.801 198.491 366.289 198.364C366.781 198.236 367.297 198.146 367.837 198.094C368.471 198.027 368.983 197.966 369.371 197.909C369.759 197.848 370.041 197.758 370.216 197.639C370.391 197.521 370.479 197.346 370.479 197.114V197.071C370.479 196.621 370.337 196.273 370.053 196.027C369.774 195.781 369.376 195.658 368.86 195.658C368.315 195.658 367.882 195.778 367.56 196.02C367.238 196.257 367.025 196.555 366.921 196.915L364.123 196.688C364.265 196.025 364.544 195.452 364.961 194.969C365.377 194.481 365.915 194.107 366.573 193.847C367.236 193.581 368.003 193.449 368.874 193.449C369.48 193.449 370.06 193.52 370.614 193.662C371.173 193.804 371.667 194.024 372.098 194.322C372.534 194.621 372.877 195.004 373.128 195.473C373.379 195.937 373.505 196.493 373.505 197.142V204.5H370.635V202.987H370.55C370.375 203.328 370.141 203.629 369.847 203.889C369.553 204.145 369.201 204.346 368.789 204.493C368.377 204.635 367.901 204.706 367.361 204.706ZM368.228 202.618C368.673 202.618 369.066 202.53 369.407 202.355C369.748 202.175 370.015 201.934 370.209 201.631C370.403 201.328 370.5 200.984 370.5 200.601V199.443C370.406 199.505 370.275 199.562 370.11 199.614C369.949 199.661 369.766 199.706 369.563 199.749C369.359 199.786 369.156 199.822 368.952 199.855C368.748 199.884 368.564 199.91 368.398 199.933C368.043 199.985 367.733 200.068 367.468 200.182C367.203 200.295 366.997 200.449 366.85 200.643C366.703 200.833 366.63 201.07 366.63 201.354C366.63 201.766 366.779 202.08 367.077 202.298C367.38 202.511 367.764 202.618 368.228 202.618Z" fill="white"/>
<rect x="329" y="217.5" width="200" height="16" rx="7" fill="white" fill-opacity="0.5"/>
<rect x="329" y="217.5" width="70" height="16" rx="7" fill="white"/>
<path d="M330.264 276.5V261.955H333.339V268.368H333.531L338.766 261.955H342.452L337.054 268.467L342.516 276.5H338.837L334.852 270.52L333.339 272.366V276.5H330.264ZM348.125 276.713C347.021 276.713 346.067 276.479 345.262 276.01C344.462 275.536 343.844 274.878 343.409 274.036C342.973 273.188 342.755 272.205 342.755 271.088C342.755 269.961 342.973 268.976 343.409 268.134C343.844 267.286 344.462 266.628 345.262 266.159C346.067 265.686 347.021 265.449 348.125 265.449C349.228 265.449 350.18 265.686 350.98 266.159C351.785 266.628 352.405 267.286 352.841 268.134C353.276 268.976 353.494 269.961 353.494 271.088C353.494 272.205 353.276 273.188 352.841 274.036C352.405 274.878 351.785 275.536 350.98 276.01C350.18 276.479 349.228 276.713 348.125 276.713ZM348.139 274.369C348.641 274.369 349.06 274.227 349.396 273.943C349.732 273.654 349.985 273.261 350.156 272.764C350.331 272.267 350.419 271.701 350.419 271.067C350.419 270.432 350.331 269.866 350.156 269.369C349.985 268.872 349.732 268.479 349.396 268.19C349.06 267.902 348.641 267.757 348.139 267.757C347.632 267.757 347.206 267.902 346.86 268.19C346.52 268.479 346.261 268.872 346.086 269.369C345.916 269.866 345.831 270.432 345.831 271.067C345.831 271.701 345.916 272.267 346.086 272.764C346.261 273.261 346.52 273.654 346.86 273.943C347.206 274.227 347.632 274.369 348.139 274.369ZM361.264 265.591V267.864H354.694V265.591H361.264ZM356.186 262.977H359.211V273.148C359.211 273.427 359.254 273.645 359.339 273.801C359.424 273.953 359.543 274.059 359.694 274.121C359.85 274.182 360.03 274.213 360.234 274.213C360.376 274.213 360.518 274.201 360.66 274.178C360.802 274.149 360.911 274.128 360.987 274.114L361.463 276.365C361.311 276.412 361.098 276.467 360.824 276.528C360.549 276.595 360.215 276.635 359.822 276.649C359.093 276.678 358.454 276.58 357.904 276.358C357.36 276.135 356.936 275.79 356.633 275.321C356.33 274.852 356.181 274.26 356.186 273.545V262.977ZM366.495 261.955V276.5H363.469V261.955H366.495ZM368.918 276.5V265.591H371.944V276.5H368.918ZM370.438 264.185C369.988 264.185 369.603 264.036 369.281 263.737C368.963 263.434 368.805 263.072 368.805 262.651C368.805 262.234 368.963 261.876 369.281 261.578C369.603 261.275 369.988 261.124 370.438 261.124C370.888 261.124 371.272 261.275 371.589 261.578C371.911 261.876 372.072 262.234 372.072 262.651C372.072 263.072 371.911 263.434 371.589 263.737C371.272 264.036 370.888 264.185 370.438 264.185ZM377.393 270.193V276.5H374.368V265.591H377.251V267.516H377.379C377.62 266.881 378.025 266.379 378.593 266.01C379.162 265.636 379.85 265.449 380.66 265.449C381.418 265.449 382.078 265.615 382.642 265.946C383.205 266.277 383.643 266.751 383.956 267.366C384.268 267.977 384.424 268.706 384.424 269.554V276.5H381.399V270.094C381.404 269.426 381.233 268.905 380.887 268.531C380.542 268.152 380.066 267.963 379.46 267.963C379.053 267.963 378.693 268.051 378.38 268.226C378.073 268.401 377.831 268.657 377.656 268.993C377.485 269.324 377.398 269.724 377.393 270.193Z" fill="white"/>
<rect x="329" y="289.5" width="200" height="16" rx="7" fill="white" fill-opacity="0.5"/>
<rect x="329" y="289.5" width="87" height="16" rx="7" fill="white"/>
<path d="M343.098 339.047H339.987C339.93 338.644 339.814 338.287 339.639 337.974C339.464 337.657 339.239 337.387 338.964 337.165C338.69 336.942 338.373 336.772 338.013 336.653C337.658 336.535 337.272 336.476 336.855 336.476C336.102 336.476 335.446 336.663 334.888 337.037C334.329 337.406 333.896 337.946 333.588 338.656C333.28 339.362 333.126 340.219 333.126 341.227C333.126 342.264 333.28 343.135 333.588 343.841C333.901 344.546 334.336 345.079 334.895 345.439C335.454 345.799 336.1 345.979 336.834 345.979C337.246 345.979 337.627 345.924 337.977 345.815C338.332 345.706 338.647 345.548 338.922 345.339C339.196 345.126 339.424 344.868 339.604 344.565C339.788 344.262 339.916 343.917 339.987 343.528L343.098 343.543C343.018 344.21 342.816 344.854 342.494 345.474C342.177 346.09 341.749 346.642 341.209 347.129C340.674 347.612 340.035 347.996 339.291 348.28C338.553 348.559 337.717 348.699 336.784 348.699C335.487 348.699 334.327 348.405 333.304 347.818C332.286 347.231 331.481 346.381 330.889 345.268C330.302 344.156 330.009 342.809 330.009 341.227C330.009 339.641 330.307 338.292 330.903 337.179C331.5 336.066 332.31 335.219 333.332 334.636C334.355 334.049 335.506 333.756 336.784 333.756C337.627 333.756 338.408 333.874 339.128 334.111C339.852 334.348 340.494 334.693 341.053 335.148C341.611 335.598 342.066 336.149 342.416 336.803C342.771 337.456 342.999 338.204 343.098 339.047ZM350.758 348.5L353.144 333.955H355.417L353.031 348.5H350.758ZM344.245 344.892L344.621 342.619H355.985L355.609 344.892H344.245ZM345.644 348.5L348.031 333.955H350.303L347.917 348.5H345.644ZM345.076 339.835L345.46 337.562H356.823L356.44 339.835H345.076Z" fill="white"/>
<rect x="329" y="361.5" width="200" height="16" rx="7" fill="white" fill-opacity="0.5"/>
<rect x="329" y="361.5" width="80" height="16" rx="7" fill="white"/>
<defs>
<linearGradient id="paint0_linear_1_63" x1="303.75" y1="4" x2="303.75" y2="433" gradientUnits="userSpaceOnUse">
<stop stop-color="#D9D9D9" stop-opacity="0"/>
<stop offset="1" stop-color="#A3A3A3" stop-opacity="0.29"/>
</linearGradient>
</defs>
</svg>
